<svg width="520" height="80" viewBox="0 0 520 80" fill="none" xmlns="http://www.w3.org/2000/svg">
<rect x="20" y="5" width="500" height="70" rx="35" fill="#E0DFEC"/>
<path d="M95.024 57C94.9013 57 94.84 56.9233 94.84 56.77L94.932 25.168C94.932 25.0453 94.9933 24.984 95.116 24.984H104.408C106.064 24.984 107.582 25.398 108.962 26.226C110.373 27.0233 111.492 28.112 112.32 29.492C113.148 30.8413 113.562 32.3747 113.562 34.092C113.562 35.2267 113.393 36.254 113.056 37.174C112.719 38.0633 112.32 38.83 111.86 39.474C111.4 40.0873 110.986 40.5473 110.618 40.854C112.274 42.694 113.102 44.856 113.102 47.34L113.148 56.77C113.148 56.9233 113.071 57 112.918 57H107.72C107.597 57 107.536 56.954 107.536 56.862V47.34C107.536 46.236 107.137 45.2853 106.34 44.488C105.573 43.66 104.623 43.246 103.488 43.246H100.452L100.406 56.77C100.406 56.9233 100.345 57 100.222 57H95.024ZM100.452 37.726H104.408C105.359 37.726 106.202 37.3733 106.938 36.668C107.674 35.9627 108.042 35.104 108.042 34.092C108.042 33.1107 107.674 32.2673 106.938 31.562C106.233 30.8567 105.389 30.504 104.408 30.504H100.452V37.726ZM117.215 57C117.093 57 117.031 56.9233 117.031 56.77L117.077 25.168C117.077 25.0453 117.139 24.984 117.261 24.984H132.027C132.15 24.984 132.211 25.0607 132.211 25.214V30.366C132.211 30.4887 132.15 30.55 132.027 30.55H122.597V37.726H132.027C132.15 37.726 132.211 37.7873 132.211 37.91L132.257 43.108C132.257 43.2307 132.196 43.292 132.073 43.292H122.597V51.342H132.073C132.196 51.342 132.257 51.4187 132.257 51.572V56.816C132.257 56.9387 132.196 57 132.073 57H117.215ZM143.898 57.46C142.242 57.46 140.724 57.046 139.344 56.218C137.995 55.3593 136.906 54.24 136.078 52.86C135.281 51.4493 134.882 49.9007 134.882 48.214V46.098C134.882 45.9447 134.959 45.868 135.112 45.868H140.264C140.387 45.868 140.448 45.9447 140.448 46.098V48.214C140.448 49.226 140.786 50.1 141.46 50.836C142.135 51.5413 142.948 51.894 143.898 51.894C144.849 51.894 145.662 51.526 146.336 50.79C147.011 50.054 147.348 49.1953 147.348 48.214C147.348 47.0793 146.612 46.098 145.14 45.27C144.65 44.994 143.883 44.5647 142.84 43.982C141.798 43.3993 140.816 42.8473 139.896 42.326C138.21 41.3447 136.952 40.118 136.124 38.646C135.327 37.1433 134.928 35.4567 134.928 33.586C134.928 31.8687 135.342 30.3353 136.17 28.986C136.998 27.606 138.087 26.5173 139.436 25.72C140.816 24.9227 142.304 24.524 143.898 24.524C145.524 24.524 147.011 24.938 148.36 25.766C149.74 26.5633 150.829 27.652 151.626 29.032C152.454 30.3813 152.868 31.8993 152.868 33.586V37.358C152.868 37.4807 152.807 37.542 152.684 37.542H147.532C147.41 37.542 147.348 37.4807 147.348 37.358L147.302 33.586C147.302 32.5127 146.965 31.6387 146.29 30.964C145.616 30.2893 144.818 29.952 143.898 29.952C142.948 29.952 142.135 30.32 141.46 31.056C140.786 31.7613 140.448 32.6047 140.448 33.586C140.448 34.598 140.663 35.4413 141.092 36.116C141.522 36.7907 142.304 37.4347 143.438 38.048C143.592 38.14 143.883 38.3087 144.312 38.554C144.772 38.7687 145.263 39.0293 145.784 39.336C146.306 39.612 146.766 39.8573 147.164 40.072C147.594 40.2867 147.854 40.4247 147.946 40.486C149.48 41.3447 150.691 42.4027 151.58 43.66C152.47 44.8867 152.914 46.4047 152.914 48.214C152.914 49.962 152.5 51.5413 151.672 52.952C150.875 54.332 149.786 55.436 148.406 56.264C147.057 57.0613 145.554 57.46 143.898 57.46ZM164.577 57.46C162.952 57.46 161.449 57.046 160.069 56.218C158.689 55.3593 157.585 54.2247 156.757 52.814C155.96 51.4033 155.561 49.8547 155.561 48.168L155.653 25.168C155.653 25.0453 155.715 24.984 155.837 24.984H160.989C161.112 24.984 161.173 25.0453 161.173 25.168V48.168C161.173 49.2107 161.495 50.1 162.139 50.836C162.814 51.5413 163.627 51.894 164.577 51.894C165.559 51.894 166.371 51.5413 167.015 50.836C167.69 50.1 168.027 49.2107 168.027 48.168V25.168C168.027 25.0453 168.089 24.984 168.211 24.984H173.363C173.486 24.984 173.547 25.0453 173.547 25.168L173.639 48.168C173.639 49.8853 173.225 51.4493 172.397 52.86C171.6 54.2707 170.511 55.39 169.131 56.218C167.782 57.046 166.264 57.46 164.577 57.46ZM177.456 57C177.333 57 177.272 56.9233 177.272 56.77L177.318 25.214C177.318 25.0607 177.394 24.984 177.548 24.984H182.654C182.807 24.984 182.884 25.0607 182.884 25.214L182.838 51.342H192.314C192.467 51.342 192.544 51.4187 192.544 51.572V56.77C192.544 56.9233 192.467 57 192.314 57H177.456ZM195.573 57C195.45 57 195.389 56.9233 195.389 56.77V30.55H189.409C189.255 30.55 189.179 30.4733 189.179 30.32L189.225 25.168C189.225 25.0453 189.286 24.984 189.409 24.984H206.889C207.042 24.984 207.119 25.0453 207.119 25.168V30.32C207.119 30.4733 207.057 30.55 206.935 30.55H200.909L200.955 56.77C200.955 56.9233 200.893 57 200.771 57H195.573ZM206.165 56.77L211.869 25.168C211.899 25.0453 211.976 24.984 212.099 24.984H218.769C218.891 24.984 218.968 25.0453 218.999 25.168L224.473 56.77C224.503 56.9233 224.442 57 224.289 57H219.183C219.06 57 218.983 56.9233 218.953 56.77L218.447 53.412H212.191L211.685 56.77C211.654 56.9233 211.577 57 211.455 57H206.349C206.226 57 206.165 56.9233 206.165 56.77ZM213.111 48.49H217.527L215.641 35.564L215.365 33.862L215.181 35.564L213.111 48.49ZM227.59 57C227.436 57 227.36 56.9233 227.36 56.77L227.452 25.168C227.452 25.0453 227.513 24.984 227.636 24.984L236.238 24.938C237.924 24.9073 239.458 25.306 240.838 26.134C242.248 26.962 243.368 28.0813 244.196 29.492C245.024 30.872 245.438 32.4053 245.438 34.092V47.294C245.438 49.0727 245.008 50.698 244.15 52.17C243.291 53.6113 242.141 54.7613 240.7 55.62C239.258 56.4787 237.633 56.9233 235.824 56.954L227.59 57ZM232.972 51.342H235.824C236.958 51.342 237.909 50.9433 238.676 50.146C239.473 49.3487 239.872 48.398 239.872 47.294V34.046C239.872 33.0647 239.504 32.2213 238.768 31.516C238.062 30.78 237.219 30.4273 236.238 30.458L233.018 30.504L232.972 51.342ZM256.444 57.46C254.788 57.46 253.27 57.046 251.89 56.218C250.54 55.3593 249.452 54.24 248.624 52.86C247.796 51.4493 247.382 49.9007 247.382 48.214L247.428 33.632C247.428 31.9453 247.826 30.412 248.624 29.032C249.452 27.652 250.556 26.548 251.936 25.72C253.316 24.892 254.818 24.478 256.444 24.478C258.1 24.478 259.602 24.892 260.952 25.72C262.301 26.548 263.374 27.652 264.172 29.032C265 30.412 265.414 31.9453 265.414 33.632L265.46 48.214C265.46 49.9007 265.046 51.4493 264.218 52.86C263.42 54.24 262.332 55.3593 260.952 56.218C259.602 57.046 258.1 57.46 256.444 57.46ZM256.444 51.894C257.364 51.894 258.161 51.526 258.836 50.79C259.541 50.0233 259.894 49.1647 259.894 48.214L259.848 33.632C259.848 32.62 259.526 31.7613 258.882 31.056C258.238 30.3507 257.425 29.998 256.444 29.998C255.493 29.998 254.68 30.3507 254.006 31.056C253.331 31.7307 252.994 32.5893 252.994 33.632V48.214C252.994 49.226 253.331 50.1 254.006 50.836C254.68 51.5413 255.493 51.894 256.444 51.894Z" fill="#2F2B82"/>
<path d="M40 80C62.0914 80 80 62.0914 80 40C80 17.9086 62.0914 0 40 0C17.9086 0 0 17.9086 0 40C0 62.0914 17.9086 80 40 80Z" fill="#2F2B82"/>
<path d="M59.5874 20.4297H56.3666V19.1201C56.3666 16.8417 54.4947 15 52.2098 15H28.1503C25.8654 15 24.0073 16.8554 24.0073 19.1201V20.4297H20.7727C18.598 20.4297 16.8224 22.1896 16.8224 24.3588V29.5157C16.8224 35.8595 21.1306 41.3847 27.2005 43.0628C28.9211 45.3683 31.2059 47.1419 33.8348 48.2469V54.1269H32.6236C29.0587 54.1269 26.1545 57.0055 26.1545 60.5389V62.3533C26.1545 63.8131 27.352 65 28.8247 65H51.5492C53.0219 65 54.2194 63.8131 54.2194 62.3533V60.5389C54.2194 57.0055 51.3152 54.1269 47.7503 54.1269H46.539V48.2469C49.1817 47.1282 51.4666 45.3547 53.1733 43.0628C59.2433 41.3847 63.5514 35.8595 63.5514 29.5157V24.3588C63.5514 22.1896 61.7759 20.4297 59.5874 20.4297ZM27.5584 19.1201C27.5584 18.7926 27.8199 18.5198 28.1503 18.5198H52.2098C52.5539 18.5198 52.8155 18.779 52.8155 19.1201V33.4857C52.8155 36.1733 51.9759 38.7244 50.3792 40.8799C48.8652 42.94 46.7868 44.4679 44.3506 45.3138C41.7216 46.2278 38.6935 46.2415 36.0371 45.3138C33.6146 44.4816 31.5362 42.9536 30.0084 40.8799C28.4118 38.7244 27.5722 36.1733 27.5722 33.4993V19.1337L27.5584 19.1201ZM19.6991 29.5157V24.3588C19.6991 23.7722 20.1809 23.2947 20.759 23.2947H23.9935V33.4857C23.9935 35.382 24.3376 37.2374 24.9708 38.97C21.7775 36.9645 19.6991 33.4447 19.6991 29.5157ZM47.7365 57.3056C49.5259 57.3056 50.9848 58.7517 50.9848 60.5252V61.794H29.3477V60.5252C29.3477 58.7517 30.8067 57.3056 32.5961 57.3056H47.7228H47.7365ZM37.0419 54.1269V49.2155C38.0604 49.4202 39.1065 49.5293 40.1663 49.5293C41.2261 49.5293 42.286 49.4202 43.3045 49.2155V54.1269H37.0281H37.0419ZM60.661 29.5157C60.661 33.4447 58.5826 36.9645 55.3893 38.97C56.0225 37.2237 56.3666 35.382 56.3666 33.4857V23.2947H59.5874C60.1792 23.2947 60.661 23.7722 60.661 24.3588V29.5157Z" fill="white"/>
<path d="M480.781 42.5918C480.781 43.2901 480.206 43.85 479.488 43.85C478.77 43.85 478.194 43.2901 478.194 42.5918V37.9429C478.194 37.8988 478.168 37.8548 478.142 37.8234C478.11 37.7919 478.065 37.773 478.006 37.773C477.334 37.773 476.732 38.0372 476.299 38.4587C475.859 38.8865 475.587 39.4779 475.587 40.1258V43.7745C475.587 45.1648 475.775 46.4482 476.157 47.6497C476.538 48.8639 477.127 50.0214 477.929 51.16L479.688 53.6701C480.633 55.0164 481.331 56.4003 481.79 57.8598C482.256 59.3256 482.483 60.848 482.483 62.4711V63.7292C482.483 64.4275 481.907 64.9874 481.189 64.9874C480.471 64.9874 479.895 64.4275 479.895 63.7292V62.4711C479.895 61.0808 479.708 59.7974 479.326 58.5959C478.944 57.3817 478.356 56.2242 477.554 55.0856L475.794 52.5755C474.85 51.2292 474.151 49.8452 473.692 48.3858C473.226 46.92 473 45.3976 473 43.7745V40.1258C473 38.7859 473.563 37.5654 474.468 36.6847C475.38 35.804 476.629 35.2567 478.006 35.2567H478.194V19.4854C478.194 18.2587 478.712 17.1326 479.552 16.3211C480.387 15.5096 481.538 15 482.806 15C484.074 15 485.232 15.5033 486.066 16.3148C486.9 17.1263 487.418 18.2461 487.418 19.4854V26.1349H487.605C488.983 26.1349 490.238 26.6759 491.144 27.5629C491.428 27.8397 491.674 28.148 491.887 28.4814C492.179 28.3807 492.483 28.3304 492.799 28.3304C494.177 28.3304 495.432 28.8777 496.338 29.7584C496.642 30.0541 496.907 30.3875 497.127 30.7587C497.398 30.6706 497.69 30.6203 497.994 30.6203C499.365 30.6203 500.62 31.1739 501.525 32.0546C502.437 32.9353 503 34.1558 503 35.4894V45.6618C503 47.0835 502.825 48.4172 502.476 49.7131C502.127 50.9902 501.583 52.2295 500.846 53.4751L499.921 55.0352C499.3 56.0795 498.847 57.1112 498.556 58.1933C498.265 59.2627 498.123 60.3825 498.123 61.5966V63.7418C498.123 64.4401 497.547 65 496.829 65C496.111 65 495.536 64.4401 495.536 63.7418V61.5966C495.536 60.1749 495.71 58.8412 496.06 57.5453C496.415 56.2619 496.952 55.0226 497.69 53.7833L498.614 52.2295C499.229 51.1978 499.682 50.1535 499.979 49.0715C500.27 48.002 500.413 46.8822 500.413 45.6744V35.502C500.413 34.8541 500.141 34.269 499.701 33.8412C499.268 33.4134 498.66 33.1492 497.994 33.1492C497.942 33.1492 497.89 33.1681 497.858 33.1995C497.825 33.231 497.806 33.275 497.806 33.3317V38.8802C497.806 39.5785 497.23 40.1384 496.512 40.1384C495.794 40.1384 495.219 39.5785 495.219 38.8802V33.2121C495.219 32.5705 494.947 31.9791 494.507 31.5513C494.067 31.1236 493.466 30.8593 492.799 30.8593C492.748 30.8593 492.702 30.8845 492.67 30.916L492.651 30.9348C492.651 30.9348 492.618 30.9977 492.618 31.0355V37.9743C492.618 38.6726 492.043 39.2325 491.325 39.2325C490.607 39.2325 490.031 38.6726 490.031 37.9743V30.9852C490.025 30.3498 489.753 29.771 489.326 29.3558C488.886 28.928 488.278 28.6638 487.612 28.6638C487.56 28.6638 487.508 28.6827 487.476 28.7141C487.45 28.7456 487.424 28.7896 487.424 28.8337V36.0745C487.424 36.7728 486.849 37.3327 486.131 37.3327C485.413 37.3327 484.837 36.7728 484.837 36.0745V19.4917C484.837 18.9507 484.611 18.46 484.242 18.1014C483.873 17.7428 483.369 17.5226 482.812 17.5226C482.256 17.5226 481.752 17.7428 481.383 18.1014C481.014 18.4537 480.788 18.9444 480.788 19.4917V42.5981L480.781 42.5918Z" fill="#2F2B82"/>
</svg>
