<svg width="520" height="80" viewBox="0 0 520 80" fill="none" xmlns="http://www.w3.org/2000/svg">
<rect x="20" y="5" width="500" height="70" rx="35" fill="#FDEDCD"/>
<path d="M101.288 55.37C99.9313 55.37 98.698 55.037 97.588 54.371C96.5027 53.6803 95.6393 52.7677 94.998 51.633C94.3567 50.4983 94.036 49.228 94.036 47.822L94.073 36.278C94.073 34.9213 94.3813 33.688 94.998 32.578C95.6393 31.4433 96.5027 30.543 97.588 29.877C98.698 29.1863 99.9313 28.841 101.288 28.841C102.645 28.841 103.866 29.174 104.951 29.84C106.036 30.506 106.9 31.4063 107.541 32.541C108.182 33.651 108.503 34.8967 108.503 36.278V37.98C108.503 38.0787 108.454 38.128 108.355 38.128H104.211C104.112 38.128 104.063 38.0787 104.063 37.98V36.278C104.063 35.464 103.792 34.761 103.249 34.169C102.731 33.577 102.077 33.281 101.288 33.281C100.4 33.281 99.7217 33.5893 99.253 34.206C98.7843 34.798 98.55 35.4887 98.55 36.278V47.822C98.55 48.7347 98.809 49.4747 99.327 50.042C99.8697 50.6093 100.523 50.893 101.288 50.893C102.077 50.893 102.731 50.5847 103.249 49.968C103.792 49.3267 104.063 48.6113 104.063 47.822V46.12C104.063 46.0213 104.112 45.972 104.211 45.972H108.392C108.491 45.972 108.54 46.0213 108.54 46.12V47.822C108.54 49.228 108.207 50.4983 107.541 51.633C106.9 52.7677 106.036 53.6803 104.951 54.371C103.866 55.037 102.645 55.37 101.288 55.37ZM111.394 55C111.295 55 111.246 54.9383 111.246 54.815L111.32 29.396C111.32 29.2973 111.369 29.248 111.468 29.248H118.942C120.274 29.248 121.495 29.581 122.605 30.247C123.739 30.8883 124.64 31.764 125.306 32.874C125.972 33.9593 126.305 35.1927 126.305 36.574C126.305 37.4867 126.169 38.313 125.898 39.053C125.626 39.7683 125.306 40.385 124.936 40.903C124.566 41.3963 124.233 41.7663 123.937 42.013C125.269 43.493 125.935 45.232 125.935 47.23L125.972 54.815C125.972 54.9383 125.91 55 125.787 55H121.606C121.507 55 121.458 54.963 121.458 54.889V47.23C121.458 46.342 121.137 45.5773 120.496 44.936C119.879 44.27 119.114 43.937 118.202 43.937H115.76L115.723 54.815C115.723 54.9383 115.673 55 115.575 55H111.394ZM115.76 39.497H118.942C119.706 39.497 120.385 39.2133 120.977 38.646C121.569 38.0787 121.865 37.388 121.865 36.574C121.865 35.7847 121.569 35.1063 120.977 34.539C120.409 33.9717 119.731 33.688 118.942 33.688H115.76V39.497ZM129.28 55C129.157 55 129.095 54.9383 129.095 54.815L129.132 29.396C129.132 29.2973 129.182 29.248 129.28 29.248H133.424C133.523 29.248 133.572 29.2973 133.572 29.396L133.609 54.815C133.609 54.9383 133.56 55 133.461 55H129.28ZM140.564 55C140.465 55 140.416 54.9383 140.416 54.815V33.725H135.606C135.482 33.725 135.421 33.6633 135.421 33.54L135.458 29.396C135.458 29.2973 135.507 29.248 135.606 29.248H149.666C149.789 29.248 149.851 29.2973 149.851 29.396V33.54C149.851 33.6633 149.801 33.725 149.703 33.725H144.856L144.893 54.815C144.893 54.9383 144.843 55 144.745 55H140.564ZM151.826 55C151.728 55 151.678 54.9383 151.678 54.815L151.715 29.396C151.715 29.2973 151.765 29.248 151.863 29.248H163.74C163.839 29.248 163.888 29.3097 163.888 29.433V33.577C163.888 33.6757 163.839 33.725 163.74 33.725H156.155V39.497H163.74C163.839 39.497 163.888 39.5463 163.888 39.645L163.925 43.826C163.925 43.9247 163.876 43.974 163.777 43.974H156.155V50.449H163.777C163.876 50.449 163.925 50.5107 163.925 50.634V54.852C163.925 54.9507 163.876 55 163.777 55H151.826ZM155.489 27.361C155.366 27.361 155.317 27.3117 155.341 27.213L158.301 20.812C158.326 20.7133 158.388 20.664 158.486 20.664H162.704C162.852 20.664 162.902 20.7133 162.852 20.812L159.411 27.213C159.362 27.3117 159.288 27.361 159.189 27.361H155.489ZM167.363 55C167.265 55 167.215 54.9383 167.215 54.815L167.289 29.396C167.289 29.2973 167.339 29.248 167.437 29.248H174.911C176.243 29.248 177.464 29.581 178.574 30.247C179.709 30.8883 180.609 31.764 181.275 32.874C181.941 33.9593 182.274 35.1927 182.274 36.574C182.274 37.4867 182.139 38.313 181.867 39.053C181.596 39.7683 181.275 40.385 180.905 40.903C180.535 41.3963 180.202 41.7663 179.906 42.013C181.238 43.493 181.904 45.232 181.904 47.23L181.941 54.815C181.941 54.9383 181.88 55 181.756 55H177.575C177.477 55 177.427 54.963 177.427 54.889V47.23C177.427 46.342 177.107 45.5773 176.465 44.936C175.849 44.27 175.084 43.937 174.171 43.937H171.729L171.692 54.815C171.692 54.9383 171.643 55 171.544 55H167.363ZM171.729 39.497H174.911C175.676 39.497 176.354 39.2133 176.946 38.646C177.538 38.0787 177.834 37.388 177.834 36.574C177.834 35.7847 177.538 35.1063 176.946 34.539C176.379 33.9717 175.701 33.688 174.911 33.688H171.729V39.497ZM185.25 55C185.127 55 185.065 54.9383 185.065 54.815L185.102 29.396C185.102 29.2973 185.151 29.248 185.25 29.248H189.394C189.493 29.248 189.542 29.2973 189.542 29.396L189.579 54.815C189.579 54.9383 189.53 55 189.431 55H185.25ZM199.679 55.37C198.347 55.37 197.126 55.037 196.016 54.371C194.93 53.6803 194.055 52.78 193.389 51.67C192.723 50.5353 192.39 49.2897 192.39 47.933L192.427 36.204C192.427 34.8473 192.747 33.614 193.389 32.504C194.055 31.394 194.943 30.506 196.053 29.84C197.163 29.174 198.371 28.841 199.679 28.841C201.011 28.841 202.219 29.174 203.305 29.84C204.39 30.506 205.253 31.394 205.895 32.504C206.561 33.614 206.894 34.8473 206.894 36.204L206.931 47.933C206.931 49.2897 206.598 50.5353 205.932 51.67C205.29 52.78 204.415 53.6803 203.305 54.371C202.219 55.037 201.011 55.37 199.679 55.37ZM199.679 50.893C200.419 50.893 201.06 50.597 201.603 50.005C202.17 49.3883 202.454 48.6977 202.454 47.933L202.417 36.204C202.417 35.39 202.158 34.6993 201.64 34.132C201.122 33.5647 200.468 33.281 199.679 33.281C198.914 33.281 198.26 33.5647 197.718 34.132C197.175 34.6747 196.904 35.3653 196.904 36.204V47.933C196.904 48.747 197.175 49.45 197.718 50.042C198.26 50.6093 198.914 50.893 199.679 50.893ZM215.421 55C215.298 55 215.236 54.9383 215.236 54.815L215.31 29.396C215.31 29.2973 215.359 29.248 215.458 29.248L222.377 29.211C223.734 29.1863 224.967 29.507 226.077 30.173C227.212 30.839 228.112 31.7393 228.778 32.874C229.444 33.984 229.777 35.2173 229.777 36.574V47.193C229.777 48.6237 229.432 49.931 228.741 51.115C228.05 52.2743 227.125 53.1993 225.966 53.89C224.807 54.5807 223.499 54.9383 222.044 54.963L215.421 55ZM219.75 50.449H222.044C222.957 50.449 223.721 50.1283 224.338 49.487C224.979 48.8457 225.3 48.081 225.3 47.193V36.537C225.3 35.7477 225.004 35.0693 224.412 34.502C223.845 33.91 223.166 33.6263 222.377 33.651L219.787 33.688L219.75 50.449ZM232.836 55C232.737 55 232.688 54.9383 232.688 54.815L232.725 29.396C232.725 29.2973 232.774 29.248 232.873 29.248H244.75C244.849 29.248 244.898 29.3097 244.898 29.433V33.577C244.898 33.6757 244.849 33.725 244.75 33.725H237.165V39.497H244.75C244.849 39.497 244.898 39.5463 244.898 39.645L244.935 43.826C244.935 43.9247 244.886 43.974 244.787 43.974H237.165V50.449H244.787C244.886 50.449 244.935 50.5107 244.935 50.634V54.852C244.935 54.9507 244.886 55 244.787 55H232.836ZM260.525 55.37C259.169 55.37 257.935 55.037 256.825 54.371C255.74 53.6803 254.877 52.7677 254.235 51.633C253.594 50.4983 253.273 49.228 253.273 47.822L253.31 36.278C253.31 34.9213 253.619 33.688 254.235 32.578C254.877 31.4433 255.74 30.543 256.825 29.877C257.935 29.1863 259.169 28.841 260.525 28.841C261.882 28.841 263.103 29.174 264.188 29.84C265.274 30.506 266.137 31.4063 266.778 32.541C267.42 33.651 267.74 34.8967 267.74 36.278V37.98C267.74 38.0787 267.691 38.128 267.592 38.128H263.448C263.35 38.128 263.3 38.0787 263.3 37.98V36.278C263.3 35.464 263.029 34.761 262.486 34.169C261.968 33.577 261.315 33.281 260.525 33.281C259.637 33.281 258.959 33.5893 258.49 34.206C258.022 34.798 257.787 35.4887 257.787 36.278V47.822C257.787 48.7347 258.046 49.4747 258.564 50.042C259.107 50.6093 259.761 50.893 260.525 50.893C261.315 50.893 261.968 50.5847 262.486 49.968C263.029 49.3267 263.3 48.6113 263.3 47.822V46.12C263.3 46.0213 263.35 45.972 263.448 45.972H267.629C267.728 45.972 267.777 46.0213 267.777 46.12V47.822C267.777 49.228 267.444 50.4983 266.778 51.633C266.137 52.7677 265.274 53.6803 264.188 54.371C263.103 55.037 261.882 55.37 260.525 55.37ZM270.631 55C270.532 55 270.483 54.9383 270.483 54.815L270.52 29.433C270.52 29.3097 270.582 29.248 270.705 29.248H274.812C274.935 29.248 274.997 29.3097 274.997 29.433L274.96 50.449H282.582C282.705 50.449 282.767 50.5107 282.767 50.634V54.815C282.767 54.9383 282.705 55 282.582 55H270.631ZM283.931 54.815L288.519 29.396C288.544 29.2973 288.605 29.248 288.704 29.248H294.069C294.168 29.248 294.229 29.2973 294.254 29.396L298.657 54.815C298.682 54.9383 298.632 55 298.509 55H294.402C294.303 55 294.242 54.9383 294.217 54.815L293.81 52.114H288.778L288.371 54.815C288.346 54.9383 288.285 55 288.186 55H284.079C283.98 55 283.931 54.9383 283.931 54.815ZM289.518 48.155H293.07L291.553 37.758L291.331 36.389L291.183 37.758L289.518 48.155ZM306.546 55.37C305.214 55.37 303.993 55.037 302.883 54.371C301.798 53.6803 300.922 52.78 300.256 51.67C299.615 50.5353 299.294 49.2897 299.294 47.933V46.231C299.294 46.1077 299.356 46.046 299.479 46.046H303.623C303.722 46.046 303.771 46.1077 303.771 46.231V47.933C303.771 48.747 304.043 49.45 304.585 50.042C305.128 50.6093 305.782 50.893 306.546 50.893C307.311 50.893 307.965 50.597 308.507 50.005C309.05 49.413 309.321 48.7223 309.321 47.933C309.321 47.0203 308.729 46.231 307.545 45.565C307.151 45.343 306.534 44.9977 305.695 44.529C304.857 44.0603 304.067 43.6163 303.327 43.197C301.971 42.4077 300.959 41.421 300.293 40.237C299.652 39.0283 299.331 37.6717 299.331 36.167C299.331 34.7857 299.664 33.5523 300.33 32.467C300.996 31.357 301.872 30.4813 302.957 29.84C304.067 29.1987 305.264 28.878 306.546 28.878C307.854 28.878 309.05 29.211 310.135 29.877C311.245 30.5183 312.121 31.394 312.762 32.504C313.428 33.5893 313.761 34.8103 313.761 36.167V39.201C313.761 39.2997 313.712 39.349 313.613 39.349H309.469C309.371 39.349 309.321 39.2997 309.321 39.201L309.284 36.167C309.284 35.3037 309.013 34.6007 308.47 34.058C307.928 33.5153 307.286 33.244 306.546 33.244C305.782 33.244 305.128 33.54 304.585 34.132C304.043 34.6993 303.771 35.3777 303.771 36.167C303.771 36.981 303.944 37.6593 304.289 38.202C304.635 38.7447 305.264 39.2627 306.176 39.756C306.3 39.83 306.534 39.9657 306.879 40.163C307.249 40.3357 307.644 40.5453 308.063 40.792C308.483 41.014 308.853 41.2113 309.173 41.384C309.519 41.5567 309.728 41.6677 309.802 41.717C311.036 42.4077 312.01 43.2587 312.725 44.27C313.441 45.2567 313.798 46.4777 313.798 47.933C313.798 49.339 313.465 50.6093 312.799 51.744C312.158 52.854 311.282 53.742 310.172 54.408C309.087 55.0493 307.878 55.37 306.546 55.37ZM322.264 55.37C320.932 55.37 319.711 55.037 318.601 54.371C317.516 53.6803 316.64 52.78 315.974 51.67C315.333 50.5353 315.012 49.2897 315.012 47.933V46.231C315.012 46.1077 315.074 46.046 315.197 46.046H319.341C319.44 46.046 319.489 46.1077 319.489 46.231V47.933C319.489 48.747 319.76 49.45 320.303 50.042C320.846 50.6093 321.499 50.893 322.264 50.893C323.029 50.893 323.682 50.597 324.225 50.005C324.768 49.413 325.039 48.7223 325.039 47.933C325.039 47.0203 324.447 46.231 323.263 45.565C322.868 45.343 322.252 44.9977 321.413 44.529C320.574 44.0603 319.785 43.6163 319.045 43.197C317.688 42.4077 316.677 41.421 316.011 40.237C315.37 39.0283 315.049 37.6717 315.049 36.167C315.049 34.7857 315.382 33.5523 316.048 32.467C316.714 31.357 317.59 30.4813 318.675 29.84C319.785 29.1987 320.981 28.878 322.264 28.878C323.571 28.878 324.768 29.211 325.853 29.877C326.963 30.5183 327.839 31.394 328.48 32.504C329.146 33.5893 329.479 34.8103 329.479 36.167V39.201C329.479 39.2997 329.43 39.349 329.331 39.349H325.187C325.088 39.349 325.039 39.2997 325.039 39.201L325.002 36.167C325.002 35.3037 324.731 34.6007 324.188 34.058C323.645 33.5153 323.004 33.244 322.264 33.244C321.499 33.244 320.846 33.54 320.303 34.132C319.76 34.6993 319.489 35.3777 319.489 36.167C319.489 36.981 319.662 37.6593 320.007 38.202C320.352 38.7447 320.981 39.2627 321.894 39.756C322.017 39.83 322.252 39.9657 322.597 40.163C322.967 40.3357 323.362 40.5453 323.781 40.792C324.2 41.014 324.57 41.2113 324.891 41.384C325.236 41.5567 325.446 41.6677 325.52 41.717C326.753 42.4077 327.728 43.2587 328.443 44.27C329.158 45.2567 329.516 46.4777 329.516 47.933C329.516 49.339 329.183 50.6093 328.517 51.744C327.876 52.854 327 53.742 325.89 54.408C324.805 55.0493 323.596 55.37 322.264 55.37ZM332.274 55C332.151 55 332.089 54.9383 332.089 54.815L332.126 29.396C332.126 29.2973 332.176 29.248 332.274 29.248H336.418C336.517 29.248 336.566 29.2973 336.566 29.396L336.603 54.815C336.603 54.9383 336.554 55 336.455 55H332.274ZM340.043 55C339.92 55 339.858 54.9383 339.858 54.815L339.932 29.396C339.932 29.2973 339.981 29.248 340.08 29.248H351.92C352.043 29.248 352.105 29.2973 352.105 29.396V33.577C352.105 33.6757 352.056 33.725 351.957 33.725H344.372V39.46H351.957C352.056 39.46 352.105 39.5217 352.105 39.645L352.142 43.826C352.142 43.9247 352.08 43.974 351.957 43.974H344.372V54.815C344.372 54.9383 344.31 55 344.187 55H340.043ZM355.99 55C355.867 55 355.805 54.9383 355.805 54.815L355.842 29.396C355.842 29.2973 355.891 29.248 355.99 29.248H360.134C360.233 29.248 360.282 29.2973 360.282 29.396L360.319 54.815C360.319 54.9383 360.27 55 360.171 55H355.99ZM370.369 55.37C369.012 55.37 367.779 55.037 366.669 54.371C365.584 53.6803 364.72 52.7677 364.079 51.633C363.438 50.4983 363.117 49.228 363.117 47.822L363.154 36.278C363.154 34.9213 363.462 33.688 364.079 32.578C364.72 31.4433 365.584 30.543 366.669 29.877C367.779 29.1863 369.012 28.841 370.369 28.841C371.726 28.841 372.947 29.174 374.032 29.84C375.117 30.506 375.981 31.4063 376.622 32.541C377.263 33.651 377.584 34.8967 377.584 36.278V37.98C377.584 38.0787 377.535 38.128 377.436 38.128H373.292C373.193 38.128 373.144 38.0787 373.144 37.98V36.278C373.144 35.464 372.873 34.761 372.33 34.169C371.812 33.577 371.158 33.281 370.369 33.281C369.481 33.281 368.803 33.5893 368.334 34.206C367.865 34.798 367.631 35.4887 367.631 36.278V47.822C367.631 48.7347 367.89 49.4747 368.408 50.042C368.951 50.6093 369.604 50.893 370.369 50.893C371.158 50.893 371.812 50.5847 372.33 49.968C372.873 49.3267 373.144 48.6113 373.144 47.822V46.12C373.144 46.0213 373.193 45.972 373.292 45.972H377.473C377.572 45.972 377.621 46.0213 377.621 46.12V47.822C377.621 49.228 377.288 50.4983 376.622 51.633C375.981 52.7677 375.117 53.6803 374.032 54.371C372.947 55.037 371.726 55.37 370.369 55.37ZM378.418 54.815L383.006 29.396C383.031 29.2973 383.093 29.248 383.191 29.248H388.556C388.655 29.248 388.717 29.2973 388.741 29.396L393.144 54.815C393.169 54.9383 393.12 55 392.996 55H388.889C388.791 55 388.729 54.9383 388.704 54.815L388.297 52.114H383.265L382.858 54.815C382.834 54.9383 382.772 55 382.673 55H378.566C378.468 55 378.418 54.9383 378.418 54.815ZM384.005 48.155H387.557L386.04 37.758L385.818 36.389L385.67 37.758L384.005 48.155ZM401.479 55.37C400.123 55.37 398.889 55.037 397.779 54.371C396.694 53.6803 395.831 52.7677 395.189 51.633C394.548 50.4983 394.227 49.228 394.227 47.822L394.264 36.278C394.264 34.9213 394.573 33.688 395.189 32.578C395.831 31.4433 396.694 30.543 397.779 29.877C398.889 29.1863 400.123 28.841 401.479 28.841C402.836 28.841 404.057 29.174 405.142 29.84C406.228 30.506 407.091 31.4063 407.732 32.541C408.374 33.651 408.694 34.8967 408.694 36.278V37.98C408.694 38.0787 408.645 38.128 408.546 38.128H404.402C404.304 38.128 404.254 38.0787 404.254 37.98V36.278C404.254 35.464 403.983 34.761 403.44 34.169C402.922 33.577 402.269 33.281 401.479 33.281C400.591 33.281 399.913 33.5893 399.444 34.206C398.976 34.798 398.741 35.4887 398.741 36.278V47.822C398.741 48.7347 399 49.4747 399.518 50.042C400.061 50.6093 400.715 50.893 401.479 50.893C402.269 50.893 402.922 50.5847 403.44 49.968C403.983 49.3267 404.254 48.6113 404.254 47.822V46.12C404.254 46.0213 404.304 45.972 404.402 45.972H408.583C408.682 45.972 408.731 46.0213 408.731 46.12V47.822C408.731 49.228 408.398 50.4983 407.732 51.633C407.091 52.7677 406.228 53.6803 405.142 54.371C404.057 55.037 402.836 55.37 401.479 55.37ZM397.668 58.626C397.52 58.626 397.471 58.5767 397.52 58.478L399.999 54.408C400.049 54.3093 400.123 54.26 400.221 54.26H403.292C403.416 54.26 403.465 54.3093 403.44 54.408L402.256 56.517C403.539 56.7143 404.563 57.183 405.327 57.923C406.092 58.663 406.474 59.551 406.474 60.587C406.474 61.5737 406.203 62.474 405.66 63.288C405.142 64.102 404.439 64.7433 403.551 65.212C402.663 65.6807 401.652 65.915 400.517 65.915C399.851 65.915 399.173 65.8533 398.482 65.73C397.816 65.6313 397.311 65.4833 396.965 65.286C396.916 65.2367 396.891 65.1997 396.891 65.175L396.78 61.919C396.78 61.771 396.854 61.7217 397.002 61.771C397.742 62.0177 398.396 62.178 398.963 62.252C399.555 62.3507 400.049 62.4 400.443 62.4C401.233 62.4 401.837 62.252 402.256 61.956C402.676 61.66 402.885 61.2653 402.885 60.772C402.885 60.1307 402.503 59.6127 401.738 59.218C400.974 58.8233 399.753 58.626 398.075 58.626H397.668ZM409.529 54.815L414.117 29.396C414.141 29.2973 414.203 29.248 414.302 29.248H419.667C419.765 29.248 419.827 29.2973 419.852 29.396L424.255 54.815C424.279 54.9383 424.23 55 424.107 55H420C419.901 55 419.839 54.9383 419.815 54.815L419.408 52.114H414.376L413.969 54.815C413.944 54.9383 413.882 55 413.784 55H409.677C409.578 55 409.529 54.9383 409.529 54.815ZM415.116 48.155H418.668L417.151 37.758L416.929 36.389L416.781 37.758L415.116 48.155ZM420.222 27.139C419.531 27.139 418.89 27.0157 418.298 26.769C417.73 26.4977 417.212 26.2387 416.744 25.992C416.275 25.7207 415.831 25.585 415.412 25.585C414.943 25.585 414.585 25.7083 414.339 25.955C414.092 26.177 413.969 26.4607 413.969 26.806C413.969 26.9047 413.919 26.954 413.821 26.954H410.491C410.392 26.954 410.343 26.9047 410.343 26.806C410.343 26.1647 410.528 25.511 410.898 24.845C411.292 24.1543 411.835 23.5747 412.526 23.106C413.241 22.6373 414.092 22.403 415.079 22.403C415.794 22.403 416.423 22.5263 416.966 22.773C417.508 22.995 417.989 23.2293 418.409 23.476C418.853 23.7227 419.235 23.846 419.556 23.846C419.901 23.846 420.197 23.735 420.444 23.513C420.715 23.291 420.851 22.9457 420.851 22.477C420.851 22.3783 420.9 22.329 420.999 22.329H424.329C424.427 22.329 424.477 22.3783 424.477 22.477C424.477 23.4883 424.267 24.3393 423.848 25.03C423.453 25.7207 422.923 26.251 422.257 26.621C421.615 26.9663 420.937 27.139 420.222 27.139ZM432.627 55.37C431.295 55.37 430.074 55.037 428.964 54.371C427.878 53.6803 427.003 52.78 426.337 51.67C425.671 50.5353 425.338 49.2897 425.338 47.933L425.375 36.204C425.375 34.8473 425.695 33.614 426.337 32.504C427.003 31.394 427.891 30.506 429.001 29.84C430.111 29.174 431.319 28.841 432.627 28.841C433.959 28.841 435.167 29.174 436.253 29.84C437.338 30.506 438.201 31.394 438.843 32.504C439.509 33.614 439.842 34.8473 439.842 36.204L439.879 47.933C439.879 49.2897 439.546 50.5353 438.88 51.67C438.238 52.78 437.363 53.6803 436.253 54.371C435.167 55.037 433.959 55.37 432.627 55.37ZM432.627 50.893C433.367 50.893 434.008 50.597 434.551 50.005C435.118 49.3883 435.402 48.6977 435.402 47.933L435.365 36.204C435.365 35.39 435.106 34.6993 434.588 34.132C434.07 33.5647 433.416 33.281 432.627 33.281C431.862 33.281 431.208 33.5647 430.666 34.132C430.123 34.6747 429.852 35.3653 429.852 36.204V47.933C429.852 48.747 430.123 49.45 430.666 50.042C431.208 50.6093 431.862 50.893 432.627 50.893Z" fill="#F6A605"/>
<path d="M40 80C62.0914 80 80 62.0914 80 40C80 17.9086 62.0914 0 40 0C17.9086 0 0 17.9086 0 40C0 62.0914 17.9086 80 40 80Z" fill="#F6A605"/>
<path d="M480.781 42.5918C480.781 43.2901 480.206 43.85 479.488 43.85C478.77 43.85 478.194 43.2901 478.194 42.5918V37.9429C478.194 37.8988 478.168 37.8548 478.142 37.8234C478.11 37.7919 478.065 37.773 478.006 37.773C477.334 37.773 476.732 38.0372 476.299 38.4587C475.859 38.8865 475.587 39.4779 475.587 40.1258V43.7745C475.587 45.1648 475.775 46.4482 476.157 47.6497C476.538 48.8639 477.127 50.0214 477.929 51.16L479.688 53.6701C480.633 55.0164 481.331 56.4003 481.79 57.8598C482.256 59.3256 482.483 60.848 482.483 62.4711V63.7292C482.483 64.4275 481.907 64.9874 481.189 64.9874C480.471 64.9874 479.895 64.4275 479.895 63.7292V62.4711C479.895 61.0808 479.708 59.7974 479.326 58.5959C478.944 57.3817 478.356 56.2242 477.554 55.0856L475.794 52.5755C474.85 51.2292 474.151 49.8452 473.692 48.3858C473.226 46.92 473 45.3976 473 43.7745V40.1258C473 38.7859 473.563 37.5654 474.468 36.6847C475.38 35.804 476.629 35.2567 478.006 35.2567H478.194V19.4854C478.194 18.2587 478.712 17.1326 479.552 16.3211C480.387 15.5096 481.538 15 482.806 15C484.074 15 485.232 15.5033 486.066 16.3148C486.9 17.1263 487.418 18.2461 487.418 19.4854V26.1349H487.605C488.983 26.1349 490.238 26.6759 491.144 27.5629C491.428 27.8397 491.674 28.148 491.887 28.4814C492.179 28.3807 492.483 28.3304 492.799 28.3304C494.177 28.3304 495.432 28.8777 496.338 29.7584C496.642 30.0541 496.907 30.3875 497.127 30.7587C497.398 30.6706 497.69 30.6203 497.994 30.6203C499.365 30.6203 500.62 31.1739 501.525 32.0546C502.437 32.9353 503 34.1558 503 35.4894V45.6618C503 47.0835 502.825 48.4172 502.476 49.7131C502.127 50.9902 501.583 52.2295 500.846 53.4751L499.921 55.0352C499.3 56.0795 498.847 57.1112 498.556 58.1933C498.265 59.2627 498.123 60.3825 498.123 61.5966V63.7418C498.123 64.4401 497.547 65 496.829 65C496.111 65 495.536 64.4401 495.536 63.7418V61.5966C495.536 60.1749 495.71 58.8412 496.06 57.5453C496.415 56.2619 496.952 55.0226 497.69 53.7833L498.614 52.2295C499.229 51.1978 499.682 50.1535 499.979 49.0715C500.27 48.002 500.413 46.8822 500.413 45.6744V35.502C500.413 34.8541 500.141 34.269 499.701 33.8412C499.268 33.4134 498.66 33.1492 497.994 33.1492C497.942 33.1492 497.89 33.1681 497.858 33.1995C497.825 33.231 497.806 33.275 497.806 33.3317V38.8802C497.806 39.5785 497.23 40.1384 496.512 40.1384C495.794 40.1384 495.219 39.5785 495.219 38.8802V33.2121C495.219 32.5705 494.947 31.9791 494.507 31.5513C494.067 31.1236 493.466 30.8593 492.799 30.8593C492.748 30.8593 492.702 30.8845 492.67 30.916L492.651 30.9348C492.651 30.9348 492.618 30.9977 492.618 31.0355V37.9743C492.618 38.6726 492.043 39.2325 491.325 39.2325C490.607 39.2325 490.031 38.6726 490.031 37.9743V30.9852C490.025 30.3498 489.753 29.771 489.326 29.3558C488.886 28.928 488.278 28.6638 487.612 28.6638C487.56 28.6638 487.508 28.6827 487.476 28.7141C487.45 28.7456 487.424 28.7896 487.424 28.8337V36.0745C487.424 36.7728 486.849 37.3327 486.131 37.3327C485.413 37.3327 484.837 36.7728 484.837 36.0745V19.4917C484.837 18.9507 484.611 18.46 484.242 18.1014C483.873 17.7428 483.369 17.5226 482.812 17.5226C482.256 17.5226 481.752 17.7428 481.383 18.1014C481.014 18.4537 480.788 18.9444 480.788 19.4917V42.5981L480.781 42.5918Z" fill="#F6A605"/>
<path d="M24.5 16C20.907 16 18 18.907 18 22.5C18 26.093 20.907 29 24.5 29C28.093 29 31 26.093 31 22.5C31 18.907 28.0882 16 24.5 16ZM28.2465 21.6125L24.5815 25.2775C24.3273 25.5317 23.9915 25.6661 23.6365 25.6661C23.2815 25.6661 22.9458 25.5221 22.6915 25.2775L20.7583 23.3347C20.5041 23.0804 20.3697 22.7446 20.3697 22.3897C20.3697 22.0347 20.5137 21.6989 20.7583 21.4446C21.0221 21.1808 21.3675 21.0561 21.7033 21.0561C22.0391 21.0561 22.3845 21.1856 22.6483 21.4446L23.6365 22.4328L26.3517 19.7177C26.8745 19.1996 27.7236 19.1996 28.2417 19.7177C28.7598 20.2358 28.7646 21.0897 28.2417 21.6077H28.2513L28.2465 21.6125Z" fill="white"/>
<path d="M37.3345 34H53.6655C54.9482 34 56 32.8846 56 31.5C56 30.1154 54.9585 29 53.6655 29H37.3345C36.0518 29 35 30.1154 35 31.5C35 32.8846 36.0415 34 37.3345 34Z" fill="white"/>
<path d="M37.3345 51H53.6655C54.9482 51 56 49.8846 56 48.5C56 47.1154 54.9585 46 53.6655 46H37.3345C36.0518 46 35 47.1154 35 48.5C35 49.8846 36.0415 51 37.3345 51Z" fill="white"/>
<path d="M24.5 33C20.9118 33 18 36.1306 18 40C18 43.8694 20.907 47 24.5 47C28.093 47 31 43.8694 31 40C31 36.1306 28.093 33 24.5 33ZM28.2465 39.0443L24.5815 42.9911C24.3273 43.2649 23.9915 43.4096 23.6365 43.4096C23.2815 43.4096 22.9458 43.2546 22.6915 42.9911L20.7583 40.8989C20.5041 40.6251 20.3697 40.2635 20.3697 39.8812C20.3697 39.4989 20.5137 39.1373 20.7583 38.8635C21.0221 38.5793 21.3675 38.445 21.7033 38.445C22.0391 38.445 22.3845 38.5845 22.6483 38.8635L23.6365 39.9277L26.3517 37.0037C26.8745 36.4458 27.7236 36.4458 28.2417 37.0037C28.7646 37.5668 28.7646 38.4812 28.2417 39.0391H28.2513L28.2465 39.0443Z" fill="white"/>
<path d="M37.2529 25H60.7471C61.985 25 63 23.8846 63 22.5C63 21.1154 61.9949 20 60.7471 20H37.2529C36.015 20 35 21.1154 35 22.5C35 23.8846 36.0051 25 37.2529 25Z" fill="white"/>
<path d="M24.5 51C20.9118 51 18 53.907 18 57.5C18 61.093 20.907 64 24.5 64C28.093 64 31 61.093 31 57.5C31 53.907 28.093 51 24.5 51ZM28.2465 56.6125L24.5815 60.2775C24.3273 60.5317 23.9915 60.6661 23.6365 60.6661C23.2815 60.6661 22.9458 60.5221 22.6915 60.2775L20.7583 58.3347C20.5041 58.0804 20.3697 57.7446 20.3697 57.3897C20.3697 57.0347 20.5137 56.6989 20.7583 56.4446C21.0221 56.1808 21.3675 56.0561 21.7033 56.0561C22.0391 56.0561 22.3845 56.1856 22.6483 56.4446L23.6365 57.4328L26.3517 54.7177C26.8745 54.1996 27.7236 54.1996 28.2417 54.7177C28.7646 55.2406 28.7646 56.0897 28.2417 56.6078H28.2513L28.2465 56.6125Z" fill="white"/>
<path d="M37.2529 42H60.7471C61.985 42 63 41.1077 63 40C63 38.8923 61.9949 38 60.7471 38H37.2529C36.015 38 35 38.8923 35 40C35 41.1077 36.0051 42 37.2529 42Z" fill="white"/>
<path d="M37.2529 60H60.7471C61.985 60 63 58.8846 63 57.5C63 56.1154 61.9949 55 60.7471 55H37.2529C36.015 55 35 56.1154 35 57.5C35 58.8846 36.0051 60 37.2529 60Z" fill="white"/>
</svg>
