<svg width="520" height="80" viewBox="0 0 520 80" fill="none" xmlns="http://www.w3.org/2000/svg">
<rect x="20" y="5" width="500" height="70" rx="35" fill="#DCEFD6"/>
<path d="M94.665 56C94.5417 56 94.48 55.9383 94.48 55.815L94.554 30.396C94.554 30.2973 94.6033 30.248 94.702 30.248H101.806C104.075 30.248 105.864 30.9387 107.171 32.32C108.503 33.7013 109.169 35.576 109.169 37.944C109.169 39.6953 108.824 41.2123 108.133 42.495C107.442 43.7777 106.542 44.7643 105.432 45.455C104.322 46.1457 103.113 46.491 101.806 46.491H98.994V55.815C98.994 55.9383 98.9323 56 98.809 56H94.665ZM98.994 42.014H101.806C102.595 42.014 103.274 41.644 103.841 40.904C104.433 40.1393 104.729 39.1527 104.729 37.944C104.729 36.982 104.47 36.1927 103.952 35.576C103.434 34.9593 102.719 34.651 101.806 34.651L98.994 34.688V42.014ZM111.827 56C111.729 56 111.679 55.9383 111.679 55.815L111.716 30.396C111.716 30.2973 111.766 30.248 111.864 30.248H123.741C123.84 30.248 123.889 30.3097 123.889 30.433V34.577C123.889 34.6757 123.84 34.725 123.741 34.725H116.156V40.497H123.741C123.84 40.497 123.889 40.5463 123.889 40.645L123.926 44.826C123.926 44.9247 123.877 44.974 123.778 44.974H116.156V51.449H123.778C123.877 51.449 123.926 51.5107 123.926 51.634V55.852C123.926 55.9507 123.877 56 123.778 56H111.827ZM133.29 56.37C131.958 56.37 130.737 56.037 129.627 55.371C128.541 54.6803 127.666 53.78 127 52.67C126.358 51.5353 126.038 50.2897 126.038 48.933V47.231C126.038 47.1077 126.099 47.046 126.223 47.046H130.367C130.465 47.046 130.515 47.1077 130.515 47.231V48.933C130.515 49.747 130.786 50.45 131.329 51.042C131.871 51.6093 132.525 51.893 133.29 51.893C134.054 51.893 134.708 51.597 135.251 51.005C135.793 50.413 136.065 49.7223 136.065 48.933C136.065 48.0203 135.473 47.231 134.289 46.565C133.894 46.343 133.277 45.9977 132.439 45.529C131.6 45.0603 130.811 44.6163 130.071 44.197C128.714 43.4077 127.703 42.421 127.037 41.237C126.395 40.0283 126.075 38.6717 126.075 37.167C126.075 35.7857 126.408 34.5523 127.074 33.467C127.74 32.357 128.615 31.4813 129.701 30.84C130.811 30.1987 132.007 29.878 133.29 29.878C134.597 29.878 135.793 30.211 136.879 30.877C137.989 31.5183 138.864 32.394 139.506 33.504C140.172 34.5893 140.505 35.8103 140.505 37.167V40.201C140.505 40.2997 140.455 40.349 140.357 40.349H136.213C136.114 40.349 136.065 40.2997 136.065 40.201L136.028 37.167C136.028 36.3037 135.756 35.6007 135.214 35.058C134.671 34.5153 134.03 34.244 133.29 34.244C132.525 34.244 131.871 34.54 131.329 35.132C130.786 35.6993 130.515 36.3777 130.515 37.167C130.515 37.981 130.687 38.6593 131.033 39.202C131.378 39.7447 132.007 40.2627 132.92 40.756C133.043 40.83 133.277 40.9657 133.623 41.163C133.993 41.3357 134.387 41.5453 134.807 41.792C135.226 42.014 135.596 42.2113 135.917 42.384C136.262 42.5567 136.472 42.6677 136.546 42.717C137.779 43.4077 138.753 44.2587 139.469 45.27C140.184 46.2567 140.542 47.4777 140.542 48.933C140.542 50.339 140.209 51.6093 139.543 52.744C138.901 53.854 138.026 54.742 136.916 55.408C135.83 56.0493 134.622 56.37 133.29 56.37ZM155.288 58.368L152.735 55.778C151.847 56.1727 150.922 56.37 149.96 56.37C148.652 56.37 147.444 56.037 146.334 55.371C145.224 54.705 144.336 53.8047 143.67 52.67C143.004 51.5353 142.671 50.2897 142.671 48.933L142.708 37.204C142.708 35.8967 143.028 34.688 143.67 33.578C144.311 32.4433 145.174 31.543 146.26 30.877C147.37 30.1863 148.603 29.841 149.96 29.841C151.267 29.841 152.463 30.174 153.549 30.84C154.659 31.4813 155.534 32.357 156.176 33.467C156.842 34.577 157.175 35.8227 157.175 37.204L157.212 48.933C157.212 49.6483 157.113 50.339 156.916 51.005C156.718 51.671 156.459 52.2877 156.139 52.855L158.433 55.186C158.531 55.2847 158.544 55.371 158.47 55.445L155.547 58.368C155.448 58.442 155.362 58.442 155.288 58.368ZM149.96 51.893C150.798 51.893 151.464 51.5847 151.958 50.968C152.476 50.3267 152.735 49.6483 152.735 48.933L152.698 37.204C152.698 36.4147 152.439 35.7363 151.921 35.169C151.403 34.577 150.749 34.281 149.96 34.281C149.121 34.281 148.443 34.577 147.925 35.169C147.431 35.761 147.185 36.4393 147.185 37.204V48.933C147.185 49.821 147.468 50.5363 148.036 51.079C148.628 51.6217 149.269 51.893 149.96 51.893ZM167.375 56.37C166.068 56.37 164.859 56.037 163.749 55.371C162.639 54.6803 161.751 53.7677 161.085 52.633C160.444 51.4983 160.123 50.2527 160.123 48.896L160.197 30.396C160.197 30.2973 160.246 30.248 160.345 30.248H164.489C164.588 30.248 164.637 30.2973 164.637 30.396V48.896C164.637 49.7347 164.896 50.45 165.414 51.042C165.957 51.6093 166.61 51.893 167.375 51.893C168.164 51.893 168.818 51.6093 169.336 51.042C169.879 50.45 170.15 49.7347 170.15 48.896V30.396C170.15 30.2973 170.199 30.248 170.298 30.248H174.442C174.541 30.248 174.59 30.2973 174.59 30.396L174.664 48.896C174.664 50.2773 174.331 51.5353 173.665 52.67C173.024 53.8047 172.148 54.705 171.038 55.371C169.953 56.037 168.732 56.37 167.375 56.37ZM177.77 56C177.647 56 177.585 55.9383 177.585 55.815L177.622 30.396C177.622 30.2973 177.672 30.248 177.77 30.248H181.914C182.013 30.248 182.062 30.2973 182.062 30.396L182.099 55.815C182.099 55.9383 182.05 56 181.951 56H177.77ZM191.644 56.37C190.312 56.37 189.091 56.037 187.981 55.371C186.896 54.6803 186.02 53.78 185.354 52.67C184.713 51.5353 184.392 50.2897 184.392 48.933V47.231C184.392 47.1077 184.454 47.046 184.577 47.046H188.721C188.82 47.046 188.869 47.1077 188.869 47.231V48.933C188.869 49.747 189.14 50.45 189.683 51.042C190.226 51.6093 190.879 51.893 191.644 51.893C192.409 51.893 193.062 51.597 193.605 51.005C194.148 50.413 194.419 49.7223 194.419 48.933C194.419 48.0203 193.827 47.231 192.643 46.565C192.248 46.343 191.632 45.9977 190.793 45.529C189.954 45.0603 189.165 44.6163 188.425 44.197C187.068 43.4077 186.057 42.421 185.391 41.237C184.75 40.0283 184.429 38.6717 184.429 37.167C184.429 35.7857 184.762 34.5523 185.428 33.467C186.094 32.357 186.97 31.4813 188.055 30.84C189.165 30.1987 190.361 29.878 191.644 29.878C192.951 29.878 194.148 30.211 195.233 30.877C196.343 31.5183 197.219 32.394 197.86 33.504C198.526 34.5893 198.859 35.8103 198.859 37.167V40.201C198.859 40.2997 198.81 40.349 198.711 40.349H194.567C194.468 40.349 194.419 40.2997 194.419 40.201L194.382 37.167C194.382 36.3037 194.111 35.6007 193.568 35.058C193.025 34.5153 192.384 34.244 191.644 34.244C190.879 34.244 190.226 34.54 189.683 35.132C189.14 35.6993 188.869 36.3777 188.869 37.167C188.869 37.981 189.042 38.6593 189.387 39.202C189.732 39.7447 190.361 40.2627 191.274 40.756C191.397 40.83 191.632 40.9657 191.977 41.163C192.347 41.3357 192.742 41.5453 193.161 41.792C193.58 42.014 193.95 42.2113 194.271 42.384C194.616 42.5567 194.826 42.6677 194.9 42.717C196.133 43.4077 197.108 44.2587 197.823 45.27C198.538 46.2567 198.896 47.4777 198.896 48.933C198.896 50.339 198.563 51.6093 197.897 52.744C197.256 53.854 196.38 54.742 195.27 55.408C194.185 56.0493 192.976 56.37 191.644 56.37ZM199.489 55.815L204.077 30.396C204.101 30.2973 204.163 30.248 204.262 30.248H209.627C209.725 30.248 209.787 30.2973 209.812 30.396L214.215 55.815C214.239 55.9383 214.19 56 214.067 56H209.96C209.861 56 209.799 55.9383 209.775 55.815L209.368 53.114H204.336L203.929 55.815C203.904 55.9383 203.842 56 203.744 56H199.637C199.538 56 199.489 55.9383 199.489 55.815ZM205.076 49.155H208.628L207.111 38.758L206.889 37.389L206.741 38.758L205.076 49.155ZM234.563 58.368L232.01 55.778C231.122 56.1727 230.197 56.37 229.235 56.37C227.928 56.37 226.719 56.037 225.609 55.371C224.499 54.705 223.611 53.8047 222.945 52.67C222.279 51.5353 221.946 50.2897 221.946 48.933L221.983 37.204C221.983 35.8967 222.304 34.688 222.945 33.578C223.586 32.4433 224.45 31.543 225.535 30.877C226.645 30.1863 227.878 29.841 229.235 29.841C230.542 29.841 231.739 30.174 232.824 30.84C233.934 31.4813 234.81 32.357 235.451 33.467C236.117 34.577 236.45 35.8227 236.45 37.204L236.487 48.933C236.487 49.6483 236.388 50.339 236.191 51.005C235.994 51.671 235.735 52.2877 235.414 52.855L237.708 55.186C237.807 55.2847 237.819 55.371 237.745 55.445L234.822 58.368C234.723 58.442 234.637 58.442 234.563 58.368ZM229.235 51.893C230.074 51.893 230.74 51.5847 231.233 50.968C231.751 50.3267 232.01 49.6483 232.01 48.933L231.973 37.204C231.973 36.4147 231.714 35.7363 231.196 35.169C230.678 34.577 230.024 34.281 229.235 34.281C228.396 34.281 227.718 34.577 227.2 35.169C226.707 35.761 226.46 36.4393 226.46 37.204V48.933C226.46 49.821 226.744 50.5363 227.311 51.079C227.903 51.6217 228.544 51.893 229.235 51.893ZM246.65 56.37C245.343 56.37 244.134 56.037 243.024 55.371C241.914 54.6803 241.026 53.7677 240.36 52.633C239.719 51.4983 239.398 50.2527 239.398 48.896L239.472 30.396C239.472 30.2973 239.522 30.248 239.62 30.248H243.764C243.863 30.248 243.912 30.2973 243.912 30.396V48.896C243.912 49.7347 244.171 50.45 244.689 51.042C245.232 51.6093 245.886 51.893 246.65 51.893C247.44 51.893 248.093 51.6093 248.611 51.042C249.154 50.45 249.425 49.7347 249.425 48.896V30.396C249.425 30.2973 249.475 30.248 249.573 30.248H253.717C253.816 30.248 253.865 30.2973 253.865 30.396L253.939 48.896C253.939 50.2773 253.606 51.5353 252.94 52.67C252.299 53.8047 251.423 54.705 250.313 55.371C249.228 56.037 248.007 56.37 246.65 56.37ZM255.025 55.815L259.613 30.396C259.637 30.2973 259.699 30.248 259.798 30.248H265.163C265.261 30.248 265.323 30.2973 265.348 30.396L269.751 55.815C269.775 55.9383 269.726 56 269.603 56H265.496C265.397 56 265.335 55.9383 265.311 55.815L264.904 53.114H259.872L259.465 55.815C259.44 55.9383 259.378 56 259.28 56H255.173C255.074 56 255.025 55.9383 255.025 55.815ZM260.612 49.155H264.164L262.647 38.758L262.425 37.389L262.277 38.758L260.612 49.155ZM272.406 56C272.208 56 272.11 55.9137 272.11 55.741L272.073 30.544C272.073 30.3467 272.171 30.248 272.369 30.248H275.699L281.952 44.826L281.767 30.544C281.767 30.3467 281.878 30.248 282.1 30.248H285.763C285.911 30.248 285.985 30.3467 285.985 30.544L286.022 55.778C286.022 55.926 285.96 56 285.837 56H282.581L276.18 42.384L276.439 55.704C276.439 55.9013 276.328 56 276.106 56H272.406ZM292.936 56C292.837 56 292.788 55.9383 292.788 55.815V34.725H287.978C287.855 34.725 287.793 34.6633 287.793 34.54L287.83 30.396C287.83 30.2973 287.879 30.248 287.978 30.248H302.038C302.161 30.248 302.223 30.2973 302.223 30.396V34.54C302.223 34.6633 302.174 34.725 302.075 34.725H297.228L297.265 55.815C297.265 55.9383 297.216 56 297.117 56H292.936ZM304.235 56C304.112 56 304.05 55.9383 304.05 55.815L304.087 30.396C304.087 30.2973 304.137 30.248 304.235 30.248H308.379C308.478 30.248 308.527 30.2973 308.527 30.396L308.564 55.815C308.564 55.9383 308.515 56 308.416 56H304.235ZM315.519 56C315.42 56 315.371 55.9383 315.371 55.815V34.725H310.561C310.438 34.725 310.376 34.6633 310.376 34.54L310.413 30.396C310.413 30.2973 310.462 30.248 310.561 30.248H324.621C324.744 30.248 324.806 30.2973 324.806 30.396V34.54C324.806 34.6633 324.757 34.725 324.658 34.725H319.811L319.848 55.815C319.848 55.9383 319.799 56 319.7 56H315.519ZM324.038 55.815L328.626 30.396C328.651 30.2973 328.713 30.248 328.811 30.248H334.176C334.275 30.248 334.337 30.2973 334.361 30.396L338.764 55.815C338.789 55.9383 338.74 56 338.616 56H334.509C334.411 56 334.349 55.9383 334.324 55.815L333.917 53.114H328.885L328.478 55.815C328.454 55.9383 328.392 56 328.293 56H324.186C324.088 56 324.038 55.9383 324.038 55.815ZM329.625 49.155H333.177L331.66 38.758L331.438 37.389L331.29 38.758L329.625 49.155ZM343.016 56C342.917 56 342.868 55.9383 342.868 55.815V34.725H338.058C337.935 34.725 337.873 34.6633 337.873 34.54L337.91 30.396C337.91 30.2973 337.959 30.248 338.058 30.248H352.118C352.241 30.248 352.303 30.2973 352.303 30.396V34.54C352.303 34.6633 352.254 34.725 352.155 34.725H347.308L347.345 55.815C347.345 55.9383 347.296 56 347.197 56H343.016ZM354.315 56C354.192 56 354.13 55.9383 354.13 55.815L354.167 30.396C354.167 30.2973 354.217 30.248 354.315 30.248H358.459C358.558 30.248 358.607 30.2973 358.607 30.396L358.644 55.815C358.644 55.9383 358.595 56 358.496 56H354.315ZM366.043 56C365.944 56 365.883 55.9383 365.858 55.815L360.752 30.396C360.727 30.2973 360.777 30.248 360.9 30.248H365.081C365.18 30.248 365.241 30.2973 365.266 30.396L368.3 47.342L371.26 30.396C371.285 30.2973 371.346 30.248 371.445 30.248H375.589C375.712 30.248 375.762 30.2973 375.737 30.396L370.705 55.815C370.68 55.9383 370.619 56 370.52 56H366.043ZM375.094 55.815L379.682 30.396C379.707 30.2973 379.768 30.248 379.867 30.248H385.232C385.331 30.248 385.392 30.2973 385.417 30.396L389.82 55.815C389.845 55.9383 389.795 56 389.672 56H385.565C385.466 56 385.405 55.9383 385.38 55.815L384.973 53.114H379.941L379.534 55.815C379.509 55.9383 379.448 56 379.349 56H375.242C375.143 56 375.094 55.9383 375.094 55.815ZM380.681 49.155H384.233L382.716 38.758L382.494 37.389L382.346 38.758L380.681 49.155Z" fill="#50AE32"/>
<path d="M40 80C62.0914 80 80 62.0914 80 40C80 17.9086 62.0914 0 40 0C17.9086 0 0 17.9086 0 40C0 62.0914 17.9086 80 40 80Z" fill="#50AE32"/>
<path d="M480.781 42.5918C480.781 43.2901 480.206 43.85 479.488 43.85C478.77 43.85 478.194 43.2901 478.194 42.5918V37.9429C478.194 37.8988 478.168 37.8548 478.142 37.8234C478.11 37.7919 478.065 37.773 478.006 37.773C477.334 37.773 476.732 38.0372 476.299 38.4587C475.859 38.8865 475.587 39.4779 475.587 40.1258V43.7745C475.587 45.1648 475.775 46.4482 476.157 47.6497C476.538 48.8639 477.127 50.0214 477.929 51.16L479.688 53.6701C480.633 55.0164 481.331 56.4003 481.79 57.8598C482.256 59.3256 482.483 60.848 482.483 62.4711V63.7292C482.483 64.4275 481.907 64.9874 481.189 64.9874C480.471 64.9874 479.895 64.4275 479.895 63.7292V62.4711C479.895 61.0808 479.708 59.7974 479.326 58.5959C478.944 57.3817 478.356 56.2242 477.554 55.0856L475.794 52.5755C474.85 51.2292 474.151 49.8452 473.692 48.3858C473.226 46.92 473 45.3976 473 43.7745V40.1258C473 38.7859 473.563 37.5654 474.468 36.6847C475.38 35.804 476.629 35.2567 478.006 35.2567H478.194V19.4854C478.194 18.2587 478.712 17.1326 479.552 16.3211C480.387 15.5096 481.538 15 482.806 15C484.074 15 485.232 15.5033 486.066 16.3148C486.9 17.1263 487.418 18.2461 487.418 19.4854V26.1349H487.605C488.983 26.1349 490.238 26.6759 491.144 27.5629C491.428 27.8397 491.674 28.148 491.887 28.4814C492.179 28.3807 492.483 28.3304 492.799 28.3304C494.177 28.3304 495.432 28.8777 496.338 29.7584C496.642 30.0541 496.907 30.3875 497.127 30.7587C497.398 30.6706 497.69 30.6203 497.994 30.6203C499.365 30.6203 500.62 31.1739 501.525 32.0546C502.437 32.9353 503 34.1558 503 35.4894V45.6618C503 47.0835 502.825 48.4172 502.476 49.7131C502.127 50.9902 501.583 52.2295 500.846 53.4751L499.921 55.0352C499.3 56.0795 498.847 57.1112 498.556 58.1933C498.265 59.2627 498.123 60.3825 498.123 61.5966V63.7418C498.123 64.4401 497.547 65 496.829 65C496.111 65 495.536 64.4401 495.536 63.7418V61.5966C495.536 60.1749 495.71 58.8412 496.06 57.5453C496.415 56.2619 496.952 55.0226 497.69 53.7833L498.614 52.2295C499.229 51.1978 499.682 50.1535 499.979 49.0715C500.27 48.002 500.413 46.8822 500.413 45.6744V35.502C500.413 34.8541 500.141 34.269 499.701 33.8412C499.268 33.4134 498.66 33.1492 497.994 33.1492C497.942 33.1492 497.89 33.1681 497.858 33.1995C497.825 33.231 497.806 33.275 497.806 33.3317V38.8802C497.806 39.5785 497.23 40.1384 496.512 40.1384C495.794 40.1384 495.219 39.5785 495.219 38.8802V33.2121C495.219 32.5705 494.947 31.9791 494.507 31.5513C494.067 31.1236 493.466 30.8593 492.799 30.8593C492.748 30.8593 492.702 30.8845 492.67 30.916L492.651 30.9348C492.651 30.9348 492.618 30.9977 492.618 31.0355V37.9743C492.618 38.6726 492.043 39.2325 491.325 39.2325C490.607 39.2325 490.031 38.6726 490.031 37.9743V30.9852C490.025 30.3498 489.753 29.771 489.326 29.3558C488.886 28.928 488.278 28.6638 487.612 28.6638C487.56 28.6638 487.508 28.6827 487.476 28.7141C487.45 28.7456 487.424 28.7896 487.424 28.8337V36.0745C487.424 36.7728 486.849 37.3327 486.131 37.3327C485.413 37.3327 484.837 36.7728 484.837 36.0745V19.4917C484.837 18.9507 484.611 18.46 484.242 18.1014C483.873 17.7428 483.369 17.5226 482.812 17.5226C482.256 17.5226 481.752 17.7428 481.383 18.1014C481.014 18.4537 480.788 18.9444 480.788 19.4917V42.5981L480.781 42.5918Z" fill="#50AE32"/>
<path d="M13.4178 58.2916L27.3737 44.3365C27.9308 43.7794 28.8289 43.7794 29.386 44.3365L31.5178 46.4681L34.6671 43.319C28.4822 36.1055 28.8005 25.2029 35.6278 18.376C42.7961 11.208 54.4554 11.208 61.6237 18.376C68.7921 25.544 68.7921 37.2026 61.6237 44.3706C58.0424 47.9517 53.3355 49.7423 48.6286 49.7423C44.3651 49.7423 40.1073 48.27 36.6795 45.3312L33.5301 48.4804L35.6676 50.6177C35.9348 50.8848 36.0826 51.243 36.0826 51.6238C36.0826 52.0047 35.9348 52.3628 35.6676 52.6299L21.7117 66.585C21.4446 66.8522 21.0807 67 20.7056 67C20.3304 67 19.9666 66.8522 19.6994 66.585L13.4178 60.3038C12.8607 59.7468 12.8607 58.8486 13.4178 58.2916ZM59.6284 42.3526C65.6883 36.2988 65.6883 26.4421 59.6284 20.3826C56.5985 17.3528 52.6192 15.8408 48.64 15.8408C44.6607 15.8408 40.6814 17.3528 37.6572 20.3826C31.5974 26.4364 31.5974 36.2931 37.6572 42.3526C43.7114 48.4121 53.5686 48.4065 59.6284 42.3526ZM20.7056 63.5666L32.649 51.6238L30.54 49.5149C30.54 49.5149 30.5173 49.4979 30.5116 49.4922C30.5002 49.4808 30.4945 49.4694 30.4889 49.4637L28.3798 47.3549L16.4364 59.2977L20.7056 63.5666Z" fill="white"/>
</svg>
