<svg width="520" height="80" viewBox="0 0 520 80" fill="none" xmlns="http://www.w3.org/2000/svg">
<rect x="20" y="5" width="500" height="70" rx="35" fill="#FBDAEC"/>
<path d="M99.992 57C99.8693 57 99.7927 56.9233 99.762 56.77L93.414 25.168C93.3833 25.0453 93.4447 24.984 93.598 24.984H98.796C98.9187 24.984 98.9953 25.0453 99.026 25.168L102.798 46.236L106.478 25.168C106.509 25.0453 106.585 24.984 106.708 24.984H111.86C112.013 24.984 112.075 25.0453 112.044 25.168L105.788 56.77C105.757 56.9233 105.681 57 105.558 57H99.992ZM114.97 57C114.817 57 114.74 56.9233 114.74 56.77L114.786 25.168C114.786 25.0453 114.848 24.984 114.97 24.984H120.122C120.245 24.984 120.306 25.0453 120.306 25.168L120.352 56.77C120.352 56.9233 120.291 57 120.168 57H114.97ZM114.924 22.638C114.771 22.638 114.71 22.5767 114.74 22.454L118.42 14.496C118.451 14.3733 118.528 14.312 118.65 14.312H123.894C124.078 14.312 124.14 14.3733 124.078 14.496L119.8 22.454C119.739 22.5767 119.647 22.638 119.524 22.638H114.924ZM124.629 57C124.475 57 124.399 56.9233 124.399 56.77L124.491 25.168C124.491 25.0453 124.552 24.984 124.675 24.984L133.277 24.938C134.963 24.9073 136.497 25.306 137.877 26.134C139.287 26.962 140.407 28.0813 141.235 29.492C142.063 30.872 142.477 32.4053 142.477 34.092V47.294C142.477 49.0727 142.047 50.698 141.189 52.17C140.33 53.6113 139.18 54.7613 137.739 55.62C136.297 56.4787 134.672 56.9233 132.863 56.954L124.629 57ZM130.011 51.342H132.863C133.997 51.342 134.948 50.9433 135.715 50.146C136.512 49.3487 136.911 48.398 136.911 47.294V34.046C136.911 33.0647 136.543 32.2213 135.807 31.516C135.101 30.78 134.258 30.4273 133.277 30.458L130.057 30.504L130.011 51.342ZM146.28 57C146.157 57 146.096 56.9233 146.096 56.77L146.142 25.168C146.142 25.0453 146.203 24.984 146.326 24.984H161.092C161.215 24.984 161.276 25.0607 161.276 25.214V30.366C161.276 30.4887 161.215 30.55 161.092 30.55H151.662V37.726H161.092C161.215 37.726 161.276 37.7873 161.276 37.91L161.322 43.108C161.322 43.2307 161.261 43.292 161.138 43.292H151.662V51.342H161.138C161.261 51.342 161.322 51.4187 161.322 51.572V56.816C161.322 56.9387 161.261 57 161.138 57H146.28ZM173.204 57.46C171.548 57.46 170.03 57.046 168.65 56.218C167.3 55.3593 166.212 54.24 165.384 52.86C164.556 51.4493 164.142 49.9007 164.142 48.214L164.188 33.632C164.188 31.9453 164.586 30.412 165.384 29.032C166.212 27.652 167.316 26.548 168.696 25.72C170.076 24.892 171.578 24.478 173.204 24.478C174.86 24.478 176.362 24.892 177.712 25.72C179.061 26.548 180.134 27.652 180.932 29.032C181.76 30.412 182.174 31.9453 182.174 33.632L182.22 48.214C182.22 49.9007 181.806 51.4493 180.978 52.86C180.18 54.24 179.092 55.3593 177.712 56.218C176.362 57.046 174.86 57.46 173.204 57.46ZM173.204 51.894C174.124 51.894 174.921 51.526 175.596 50.79C176.301 50.0233 176.654 49.1647 176.654 48.214L176.608 33.632C176.608 32.62 176.286 31.7613 175.642 31.056C174.998 30.3507 174.185 29.998 173.204 29.998C172.253 29.998 171.44 30.3507 170.766 31.056C170.091 31.7307 169.754 32.5893 169.754 33.632V48.214C169.754 49.226 170.091 50.1 170.766 50.836C171.44 51.5413 172.253 51.894 173.204 51.894Z" fill="#E4087E"/>
<path d="M40 80C62.0914 80 80 62.0914 80 40C80 17.9086 62.0914 0 40 0C17.9086 0 0 17.9086 0 40C0 62.0914 17.9086 80 40 80Z" fill="#E4087E"/>
<path d="M480.781 42.5918C480.781 43.2901 480.206 43.85 479.488 43.85C478.77 43.85 478.194 43.2901 478.194 42.5918V37.9429C478.194 37.8988 478.168 37.8548 478.142 37.8234C478.11 37.7919 478.065 37.773 478.006 37.773C477.334 37.773 476.732 38.0372 476.299 38.4587C475.859 38.8865 475.587 39.4779 475.587 40.1258V43.7745C475.587 45.1648 475.775 46.4482 476.157 47.6497C476.538 48.8639 477.127 50.0214 477.929 51.16L479.688 53.6701C480.633 55.0164 481.331 56.4003 481.79 57.8598C482.256 59.3256 482.483 60.848 482.483 62.4711V63.7292C482.483 64.4275 481.907 64.9874 481.189 64.9874C480.471 64.9874 479.895 64.4275 479.895 63.7292V62.4711C479.895 61.0808 479.708 59.7974 479.326 58.5959C478.944 57.3817 478.356 56.2242 477.554 55.0856L475.794 52.5755C474.85 51.2292 474.151 49.8452 473.692 48.3858C473.226 46.92 473 45.3976 473 43.7745V40.1258C473 38.7859 473.563 37.5654 474.468 36.6847C475.38 35.804 476.629 35.2567 478.006 35.2567H478.194V19.4854C478.194 18.2587 478.712 17.1326 479.552 16.3211C480.387 15.5096 481.538 15 482.806 15C484.074 15 485.232 15.5033 486.066 16.3148C486.9 17.1263 487.418 18.2461 487.418 19.4854V26.1349H487.605C488.983 26.1349 490.238 26.6759 491.144 27.5629C491.428 27.8397 491.674 28.148 491.887 28.4814C492.179 28.3807 492.483 28.3304 492.799 28.3304C494.177 28.3304 495.432 28.8777 496.338 29.7584C496.642 30.0541 496.907 30.3875 497.127 30.7587C497.398 30.6706 497.69 30.6203 497.994 30.6203C499.365 30.6203 500.62 31.1739 501.525 32.0546C502.437 32.9353 503 34.1558 503 35.4894V45.6618C503 47.0835 502.825 48.4172 502.476 49.7131C502.127 50.9902 501.583 52.2295 500.846 53.4751L499.921 55.0352C499.3 56.0795 498.847 57.1112 498.556 58.1933C498.265 59.2627 498.123 60.3825 498.123 61.5966V63.7418C498.123 64.4401 497.547 65 496.829 65C496.111 65 495.536 64.4401 495.536 63.7418V61.5966C495.536 60.1749 495.71 58.8412 496.06 57.5453C496.415 56.2619 496.952 55.0226 497.69 53.7833L498.614 52.2295C499.229 51.1978 499.682 50.1535 499.979 49.0715C500.27 48.002 500.413 46.8822 500.413 45.6744V35.502C500.413 34.8541 500.141 34.269 499.701 33.8412C499.268 33.4134 498.66 33.1492 497.994 33.1492C497.942 33.1492 497.89 33.1681 497.858 33.1995C497.825 33.231 497.806 33.275 497.806 33.3317V38.8802C497.806 39.5785 497.23 40.1384 496.512 40.1384C495.794 40.1384 495.219 39.5785 495.219 38.8802V33.2121C495.219 32.5705 494.947 31.9791 494.507 31.5513C494.067 31.1236 493.466 30.8593 492.799 30.8593C492.748 30.8593 492.702 30.8845 492.67 30.916L492.651 30.9348C492.651 30.9348 492.618 30.9977 492.618 31.0355V37.9743C492.618 38.6726 492.043 39.2325 491.325 39.2325C490.607 39.2325 490.031 38.6726 490.031 37.9743V30.9852C490.025 30.3498 489.753 29.771 489.326 29.3558C488.886 28.928 488.278 28.6638 487.612 28.6638C487.56 28.6638 487.508 28.6827 487.476 28.7141C487.45 28.7456 487.424 28.7896 487.424 28.8337V36.0745C487.424 36.7728 486.849 37.3327 486.131 37.3327C485.413 37.3327 484.837 36.7728 484.837 36.0745V19.4917C484.837 18.9507 484.611 18.46 484.242 18.1014C483.873 17.7428 483.369 17.5226 482.812 17.5226C482.256 17.5226 481.752 17.7428 481.383 18.1014C481.014 18.4537 480.788 18.9444 480.788 19.4917V42.5981L480.781 42.5918Z" fill="#E4087E"/>
<path d="M54.2627 38.56L33.8284 26.6286C33.4284 26.4229 32.9142 26.4229 32.5142 26.6286C32.1142 26.8343 31.9084 27.3372 31.9084 27.7372V51.4057C31.9084 51.9086 32.1142 52.32 32.5142 52.5143C32.7199 52.6172 32.9142 52.72 33.1199 52.72C33.3256 52.72 33.5199 52.6172 33.7256 52.5143L54.2627 40.7771C54.6627 40.5714 54.8684 40.1715 54.8684 39.6686C54.8684 39.1657 54.6627 38.7543 54.2627 38.56Z" fill="white"/>
<path d="M40 14C25.6686 14 14 25.6686 14 40C14 54.3314 25.6686 66 40 66C54.3314 66 66 54.3314 66 40C66 25.6686 54.3314 14 40 14ZM40 63.1429C27.2343 63.1429 16.8571 52.7657 16.8571 40C16.8571 27.2343 27.2343 16.8571 40 16.8571C52.7657 16.8571 63.1429 27.2343 63.1429 40C63.1429 52.7657 52.7657 63.1429 40 63.1429Z" fill="white"/>
</svg>
