<svg width="106" height="96" viewBox="0 0 106 96" fill="none" xmlns="http://www.w3.org/2000/svg">
<g clip-path="url(#clip0_2098_40)">
<path d="M53.4356 19.6416C58.8953 19.6416 63.329 15.2448 63.329 9.8304C63.329 4.416 58.9147 0 53.4356 0C47.9565 0 43.5423 4.3968 43.5423 9.8112C43.5423 15.2256 47.9759 19.6224 53.4356 19.6224" fill="#7F7F7F"/>
<path d="M69.1178 23.5584C69.1178 23.5584 69.0016 23.5584 68.9242 23.5776C68.8661 23.5776 68.808 23.5584 68.7306 23.5584H38.1406C38.1406 23.5584 38.0245 23.5584 37.947 23.5776C37.889 23.5776 37.8309 23.5584 37.7534 23.5584C35.8367 23.5584 34.3072 25.0944 34.3072 26.976V54.1056C34.3072 56.0064 35.8561 57.5232 37.7534 57.5232C39.6508 57.5232 41.1996 55.9872 41.1996 54.1056V31.7376H42.8453V91.6416C42.8453 94.0416 44.8201 96 47.2402 96C49.6603 96 51.6351 94.0416 51.6351 91.6416V62.4768H55.1974V91.6416C55.1974 94.0416 57.1722 96 59.5923 96C62.0124 96 63.9872 94.0416 63.9872 91.6416V31.7376H65.6329V54.1056C65.6329 56.0064 67.1817 57.5232 69.0791 57.5232C70.9764 57.5232 72.5253 55.9872 72.5253 54.1056V26.976C72.5253 25.0944 70.9764 23.5584 69.0791 23.5584" fill="#7F7F7F"/>
<path d="M90.7437 35.0592C95.0999 35.0592 98.6429 31.5456 98.6429 27.2256C98.6429 22.9056 95.0999 19.392 90.7437 19.392C86.3876 19.392 82.8446 22.9056 82.8446 27.2256C82.8446 31.5456 86.3876 35.0592 90.7437 35.0592Z" fill="#7F7F7F"/>
<path d="M103.251 38.1888C103.251 38.1888 103.154 38.1888 103.096 38.1888C103.038 38.1888 102.999 38.1888 102.941 38.1888H78.5271C78.5271 38.1888 78.4303 38.1888 78.3722 38.1888C78.3142 38.1888 78.2754 38.1888 78.2174 38.1888C76.6879 38.1888 75.4681 39.4176 75.4681 40.9152V62.5728C75.4681 64.0896 76.7072 65.2992 78.2174 65.2992C79.7275 65.2992 80.9666 64.0704 80.9666 62.5728V44.7168H82.2831V92.5056C82.2831 94.4256 83.8513 95.9808 85.7874 95.9808C87.7235 95.9808 89.2917 94.4256 89.2917 92.5056V69.2352H92.1377V92.5056C92.1377 94.4256 93.7059 95.9808 95.642 95.9808C97.5781 95.9808 99.1463 94.4256 99.1463 92.5056V44.7168H100.463V62.5728C100.463 64.0896 101.702 65.2992 103.212 65.2992C104.722 65.2992 105.961 64.0704 105.961 62.5728V40.9152C105.961 39.4176 104.722 38.1888 103.212 38.1888" fill="#7F7F7F"/>
<path d="M15.9145 32.4096C20.4643 32.4096 24.1622 28.7424 24.1622 24.2304C24.1622 19.7184 20.4643 16.0512 15.9145 16.0512C11.3647 16.0512 7.66685 19.7184 7.66685 24.2304C7.66685 28.7424 11.3647 32.4096 15.9145 32.4096Z" fill="#7F7F7F"/>
<path d="M28.9637 35.6736C28.9637 35.6736 28.8669 35.6736 28.8088 35.6736C28.7507 35.6736 28.712 35.6736 28.6539 35.6736H3.19452C3.19452 35.6736 3.09772 35.6736 3.03964 35.6736C2.98155 35.6736 2.94283 35.6736 2.88475 35.6736C1.29717 35.6736 0 36.9408 0 38.5152V61.1136C0 62.688 1.29717 63.9552 2.88475 63.9552C4.47233 63.9552 5.75014 62.688 5.75014 61.1136V42.4896H7.12475V92.3712C7.12475 94.3872 8.77041 96 10.7839 96C12.7974 96 14.4431 94.368 14.4431 92.3712V68.0832H17.4053V92.3712C17.4053 94.3872 19.051 96 21.0645 96C23.078 96 24.7237 94.368 24.7237 92.3712V42.4896H26.0983V61.1136C26.0983 62.688 27.3761 63.9552 28.9637 63.9552C30.5512 63.9552 31.829 62.688 31.829 61.1136V38.5152C31.829 36.9408 30.5512 35.6736 28.9637 35.6736Z" fill="#7F7F7F"/>
</g>
<defs>
<clipPath id="clip0_2098_40">
<rect width="106" height="96" fill="white"/>
</clipPath>
</defs>
</svg>
