<svg width="60" height="60" viewBox="0 0 60 60" fill="none" xmlns="http://www.w3.org/2000/svg">
<g clip-path="url(#clip0_16_40)">
<path d="M30 1.5C45.7401 1.5 58.5 14.2599 58.5 30C58.5 45.7401 45.7401 58.5 30 58.5C14.2599 58.5 1.5 45.7401 1.5 30C1.5 14.2599 14.2599 1.5 30 1.5Z" stroke="#000032" stroke-width="3" stroke-miterlimit="10"/>
<path fill-rule="evenodd" clip-rule="evenodd" d="M12.0695 19.2509C12.9711 31.9974 27.991 47.0288 40.7467 47.9305C42.7753 48.0739 42.6216 48.1354 44.2609 46.6497C48.6358 42.7048 48.8919 40.3891 46.474 38.7087C46.4432 38.6882 46.4125 38.6678 46.3818 38.6473C39.0152 32.7146 40.1627 32.9913 32.7962 37.7046C32.3147 38.012 31.7409 38.0325 31.2389 37.7558C26.8128 35.2967 24.7022 33.1859 22.2433 28.7595C21.9667 28.2574 21.9872 27.6836 22.2945 27.2021C26.9972 19.8349 27.2739 20.9825 21.352 13.6154C21.3315 13.5846 21.311 13.5539 21.2905 13.5231C19.6205 11.105 17.2947 11.3714 13.3502 15.7364C11.8646 17.3758 11.9261 17.2221 12.0695 19.2509Z" fill="#000032"/>
</g>
<defs>
<clipPath id="clip0_16_40">
<rect width="60" height="60" fill="white"/>
</clipPath>
</defs>
</svg>
