<svg width="96" height="77" viewBox="0 0 96 77" fill="none" xmlns="http://www.w3.org/2000/svg">
<g clip-path="url(#clip0_2098_42)">
<path d="M93.8614 41.4453V75.075C93.8614 76.1337 92.9902 77 91.8812 77H4.11887C3.00996 77 2.13867 76.1337 2.13867 75.075V41.4453" fill="#7F7F7F"/>
<path d="M96 18.2875V39.809C96 43.3125 94.0792 46.3925 91.1881 48.0672C89.703 48.9527 87.9406 49.4532 86.0594 49.4532H56.4357V43.1585C56.4357 42.0997 55.5446 41.2335 54.4555 41.2335H41.5446C40.4357 41.2335 39.5644 42.0997 39.5644 43.1585V49.4532H9.92082C8.05943 49.4532 6.27725 48.9527 4.79211 48.0672C1.92082 46.3925 -0.0197754 43.3125 -0.0197754 39.809V18.2875C-0.0197754 17.2095 0.851512 16.3625 1.96042 16.3625H93.9802C95.0693 16.3625 95.9604 17.2095 95.9604 18.2875" fill="#666666"/>
<path d="M96 13.9563V35.4778C96 38.9813 94.0792 42.0612 91.1881 43.736C89.703 44.6215 87.9406 45.122 86.0594 45.122H56.4357V38.8273C56.4357 37.7685 55.5446 36.9023 54.4555 36.9023H41.5446C40.4357 36.9023 39.5644 37.7685 39.5644 38.8273V45.122H9.92082C8.05943 45.122 6.27725 44.6215 4.79211 43.736C1.92082 42.0612 -0.0197754 38.9813 -0.0197754 35.4778V13.9563C-0.0197754 12.8783 0.851512 12.0312 1.96042 12.0312H93.9802C95.0693 12.0312 95.9604 12.8783 95.9604 13.9563" fill="#7F7F7F"/>
<path d="M73.0693 1.925V12.012H22.9109V1.925C22.9109 0.847 23.802 0 24.8911 0H71.0693C72.1584 0 73.0495 0.847 73.0495 1.925" fill="#333333"/>
<path d="M56.4356 38.8272V47.3357C56.4356 50.6275 53.703 53.3225 50.2772 53.3225H45.6832C42.297 53.3225 39.5446 50.6467 39.5446 47.3357V38.8272C39.5446 37.7685 40.4158 36.9022 41.5248 36.9022H54.4356C55.5248 36.9022 56.4158 37.7685 56.4158 38.8272" fill="#333333"/>
</g>
<defs>
<clipPath id="clip0_2098_42">
<rect width="96" height="77" fill="white"/>
</clipPath>
</defs>
</svg>
