<svg width="60" height="60" viewBox="0 0 60 60" fill="none" xmlns="http://www.w3.org/2000/svg">
<g clip-path="url(#clip0_90_16)">
<path d="M30 60C46.575 60 60 46.575 60 30C60 13.425 46.575 0 30 0C13.425 0 0 13.425 0 30C0 46.575 13.425 60 30 60Z" fill="#FFCB00"/>
<path fill-rule="evenodd" clip-rule="evenodd" d="M42.39 22.29C43.74 21.015 43.815 18.9 42.54 17.55C41.265 16.2 39.15 16.125 37.8 17.4C37.8 17.4 37.695 17.505 37.65 17.55L29.97 25.245L22.29 17.565C21.03 16.215 18.9 16.14 17.55 17.415C16.2 18.675 16.125 20.805 17.4 22.155C17.445 22.215 17.505 22.26 17.55 22.305L25.245 29.985L17.565 37.665C16.245 38.955 16.215 41.085 17.505 42.405C18.765 43.695 20.805 43.755 22.14 42.555L22.29 42.405L29.97 34.725L37.65 42.405C38.895 43.77 41.025 43.86 42.39 42.615C43.74 41.385 43.845 39.3 42.645 37.935C42.615 37.905 42.57 37.86 42.54 37.83C42.51 37.8 42.435 37.725 42.39 37.68L34.71 30L42.39 22.32V22.29Z" fill="black"/>
</g>
<defs>
<clipPath id="clip0_90_16">
<rect width="60" height="60" fill="white"/>
</clipPath>
</defs>
</svg>
