<svg width="44" height="44" viewBox="0 0 44 44" fill="none" xmlns="http://www.w3.org/2000/svg">
<g clip-path="url(#clip0_2017_238)">
<path d="M7.31978 42.4434H33.6811C38.561 42.4123 42.5055 38.3443 42.4649 33.3528V6.10189C42.4852 3.61133 40.5129 1.57736 38.073 1.55661H16.1035C13.6636 1.57736 11.6913 3.61133 11.7116 6.10189V35.6359C11.7116 39.4028 10.9593 42.4538 7.31978 42.4538V42.4434Z" stroke="black" stroke-width="3" stroke-linecap="round" stroke-linejoin="round"/>
<path d="M1.52496 14.9123C1.52496 12.1519 3.7209 9.91037 6.42515 9.91037H11.3253V36.1858C11.3253 39.6415 9.80038 42.4434 6.42515 42.4434C3.04992 42.4434 1.52496 39.6415 1.52496 36.1858V14.9123Z" stroke="black" stroke-width="3" stroke-linecap="round" stroke-linejoin="round"/>
<path d="M22.61 15.9604C24.0867 15.9604 25.2837 14.7385 25.2837 13.2311C25.2837 11.7238 24.0867 10.5019 22.61 10.5019C21.1333 10.5019 19.9362 11.7238 19.9362 13.2311C19.9362 14.7385 21.1333 15.9604 22.61 15.9604Z" stroke="black" stroke-width="3" stroke-linecap="round" stroke-linejoin="round"/>
<path d="M19.3161 26.5453H34.0268" stroke="black" stroke-width="3" stroke-linecap="round" stroke-linejoin="round"/>
<path d="M19.8549 33.3632H27.2052" stroke="black" stroke-width="3" stroke-linecap="round" stroke-linejoin="round"/>
</g>
<defs>
<clipPath id="clip0_2017_238">
<rect width="44" height="44" fill="white"/>
</clipPath>
</defs>
</svg>
