<svg width="96" height="96" viewBox="0 0 96 96" fill="none" xmlns="http://www.w3.org/2000/svg">
<g clip-path="url(#clip0_2098_37)">
<path d="M22.8581 19.6416C28.2931 19.6416 32.7067 15.2448 32.7067 9.8304C32.7067 4.416 28.2931 0 22.8581 0C17.423 0 13.0095 4.3968 13.0095 9.8112C13.0095 15.2256 17.423 19.6224 22.8581 19.6224" fill="#B3B3B3"/>
<path d="M46.5834 50.0352L42.2855 26.6304C42.1313 25.5744 41.4953 24.7104 40.628 24.192C40.628 24.192 40.5895 24.1728 40.5702 24.1536C40.4738 24.096 40.3967 24.0384 40.3004 24C39.7607 23.712 39.1632 23.5392 38.5272 23.5392H8.05624C7.22749 23.5392 6.45656 23.8272 5.83981 24.288C5.04961 24.8064 4.49069 25.632 4.3365 26.6304L0.0385688 50.0352C-0.231257 51.8976 1.06005 53.6448 2.92955 53.9136C4.79906 54.1824 6.55292 52.896 6.82275 51.0336L10.5039 31.7376H12.3349L6.18673 68.0448H12.7589V91.6416C12.7589 94.0416 14.7248 96 17.1339 96C19.5431 96 21.509 94.0416 21.509 91.6416V68.0448H25.0552V91.6416C25.0552 94.0416 27.0211 96 29.4303 96C31.8394 96 33.8053 94.0416 33.8053 91.6416V68.0448H40.7051L34.5377 31.7376H36.041L39.7222 51.0336C39.992 52.896 41.7459 54.2016 43.6154 53.9136C45.4849 53.6448 46.7954 51.8976 46.5063 50.0352" fill="#B3B3B3"/>
<path d="M76.9772 19.6416C82.4123 19.6416 86.8259 15.2448 86.8259 9.83043C86.8259 4.41603 82.4123 0.0192261 76.9772 0.0192261C71.5422 0.0192261 67.1286 4.41603 67.1286 9.83043C67.1286 15.2448 71.5422 19.6416 76.9772 19.6416Z" fill="#333333"/>
<path d="M92.5693 23.5584C92.5693 23.5584 92.4537 23.5584 92.3766 23.5776C92.3187 23.5776 92.2609 23.5584 92.1838 23.5584H61.7321C61.7321 23.5584 61.6165 23.5584 61.5394 23.5776C61.4816 23.5776 61.4237 23.5584 61.3467 23.5584C59.4386 23.5584 57.916 25.0944 57.916 26.976V54.1056C57.916 56.0064 59.4579 57.5232 61.3467 57.5232C63.2354 57.5232 64.7773 55.9872 64.7773 54.1056V31.7376H66.4155V91.6416C66.4155 94.0416 68.3814 96 70.7905 96C73.1997 96 75.1656 94.0416 75.1656 91.6416V62.4768H78.7118V91.6416C78.7118 94.0416 80.6777 96 83.0869 96C85.496 96 87.4619 94.0416 87.4619 91.6416V31.7376H89.1001V54.1056C89.1001 56.0064 90.642 57.5232 92.5307 57.5232C94.4195 57.5232 95.9614 55.9872 95.9614 54.1056V26.976C95.9614 25.0944 94.4195 23.5584 92.5307 23.5584" fill="#333333"/>
</g>
<defs>
<clipPath id="clip0_2098_37">
<rect width="96" height="96" fill="white"/>
</clipPath>
</defs>
</svg>
