<svg width="77" height="96" viewBox="0 0 77 96" fill="none" xmlns="http://www.w3.org/2000/svg">
<g clip-path="url(#clip0_2098_64)">
<path d="M77 67.7952C77 92.8128 52.4757 96 38.5 96C24.5243 96 0 92.8128 0 67.7952C0 49.2864 11.9235 33.792 28.1362 28.9344C31.4403 27.936 34.9086 27.3792 38.5 27.3408C42.0914 27.3792 45.6007 27.936 48.8843 28.9344C65.097 33.792 77 49.2864 77 67.7952Z" fill="#666666"/>
<path d="M48.8843 28.9536C45.5802 27.9552 42.0914 27.3984 38.5 27.36C34.9086 27.3984 31.4198 27.9552 28.1362 28.9536C11.9235 33.792 0 49.2864 0 67.7952C0 71.6352 0.574627 74.9376 1.60075 77.8176C9.68657 90.0672 27.2743 91.9872 38.5 91.9872C49.7257 91.9872 67.3134 90.0672 75.3993 77.8176C76.4254 74.9376 77 71.6352 77 67.7952C77 49.3056 65.097 33.792 48.8843 28.9344V28.9536Z" fill="#7F7F7F"/>
<path d="M57.1958 3.2832C58.263 3.6672 58.694 4.8576 58.0783 5.76L49.4589 18.3936C49.11 18.336 48.7817 18.2592 48.4123 18.24C48.3096 18.24 48.1865 18.24 48.0634 18.24H28.957C28.8339 18.24 28.7108 18.24 28.5876 18.24C28.2387 18.24 27.8899 18.2976 27.541 18.3936L18.9216 5.76C18.3264 4.8768 18.7164 3.6864 19.763 3.3024C23.9906 1.7664 30.4552 0 38.4999 0C42.5428 0 49.3768 0.4416 57.1753 3.2832" fill="#7F7F7F"/>
<path d="M53.8301 23.616C53.8301 25.1136 53.1939 26.4576 52.1473 27.4368C51.2648 28.2624 50.1361 28.8 48.8842 28.9536C45.5801 27.9552 42.0913 27.3984 38.4999 27.36C34.9085 27.3984 31.4197 27.9552 28.1361 28.9536C25.345 28.5888 23.1902 26.3424 23.1902 23.616C23.1902 22.1376 23.8264 20.7936 24.873 19.7952C25.6118 19.1232 26.5148 18.624 27.5409 18.3936C27.8898 18.3168 28.2182 18.2592 28.5876 18.24C28.7107 18.24 28.8338 18.24 28.957 18.24H48.0633C48.1865 18.24 48.3096 18.24 48.4327 18.24C48.7816 18.24 49.1305 18.3168 49.4794 18.3936C52.0036 18.9888 53.8506 21.1008 53.8506 23.616" fill="#333333"/>
<path d="M48.125 62.9952C47.0579 61.8624 45.2929 60.9792 42.8508 60.3072L37.7817 58.944C36.4478 58.5792 35.4627 58.1376 34.847 57.6192C34.2314 57.1008 33.9235 56.4864 33.9235 55.776C33.9235 55.1232 34.1493 54.5472 34.5802 54.0288C35.0317 53.5104 35.6269 53.1072 36.3862 52.8192C37.1455 52.5312 37.987 52.3968 38.9515 52.416C39.9366 52.4352 40.8396 52.6272 41.6399 52.992C42.4403 53.3568 43.1176 53.8752 43.6511 54.528C44.1847 55.1808 44.5336 55.9488 44.7183 56.8128L49.5411 55.9872C49.1306 54.3744 48.4534 52.992 47.4888 51.84C46.5243 50.688 45.334 49.824 43.8974 49.2096C43.1586 48.8832 42.3377 48.6528 41.4758 48.4992V45.1584H36.7556V48.4224C35.6885 48.576 34.6829 48.8064 33.8004 49.1904C32.3433 49.824 31.2146 50.7072 30.4142 51.8784C29.6138 53.0496 29.2034 54.4128 29.2034 55.968C29.2034 59.3088 31.1735 61.5552 35.1344 62.7072L41.9273 64.6848C43.0149 65.0112 43.8153 65.3952 44.3079 65.8752C44.8004 66.3552 45.0467 66.9888 45.0467 67.7568C45.0467 68.8512 44.5336 69.7536 43.487 70.4832C42.4403 71.1936 41.1064 71.5584 39.5056 71.5584C37.9049 71.5584 36.3862 71.1168 35.1754 70.2336C33.9646 69.3504 33.1847 68.16 32.8153 66.6624L28.1567 67.3536C28.4235 69.0624 29.0597 70.5408 30.0653 71.7696C31.0709 73.0176 32.3433 73.9776 33.903 74.6496C34.7855 75.0336 35.75 75.3024 36.7556 75.4752V78.7776H41.4758V75.5136C42.6455 75.36 43.7332 75.072 44.7183 74.6496C46.2985 73.9584 47.5299 72.9984 48.3918 71.7696C49.2538 70.5408 49.7052 69.1008 49.7052 67.4688C49.7052 65.6064 49.1717 64.1088 48.084 62.976L48.125 62.9952Z" fill="white"/>
</g>
<defs>
<clipPath id="clip0_2098_64">
<rect width="77" height="96" fill="white"/>
</clipPath>
</defs>
</svg>
