<svg width="50" height="58" viewBox="0 0 50 58" fill="none" xmlns="http://www.w3.org/2000/svg">
<g clip-path="url(#clip0_2017_245)">
<path d="M49.7122 46.324L43.925 40.476C43.4188 39.9662 42.5948 39.9662 42.0886 40.476L42.0588 40.506L41.086 39.5264C40.679 39.1165 40.4209 38.5767 40.3713 38.0069L38.7632 18.2237C38.6143 16.5443 37.2444 15.2847 35.5768 15.2747H35.4279C34.5543 15.2747 33.6907 15.5147 32.9363 15.9445V5.11824C32.9363 2.29921 30.6532 0 27.8539 0H10.7803C7.98099 0 5.69788 2.29921 5.69788 5.11824V6.02792C5.12214 5.76801 4.49677 5.66805 3.86147 5.74802C2.86882 5.86798 1.97543 6.41779 1.42947 7.26749L0.516227 8.697C-0.327529 9.99655 -0.109145 11.706 1.03241 12.7456L3.96074 15.5047C3.80191 15.5646 3.64309 15.6346 3.49419 15.7246C2.50154 16.3344 1.88609 17.434 1.90594 18.6036V20.1531C1.90594 20.9228 2.15411 21.6525 2.62065 22.2423C2.15411 22.8421 1.90594 23.5719 1.90594 24.3316V25.8711C1.90594 26.6408 2.15411 27.3706 2.62065 27.9704C2.15411 28.5701 1.90594 29.2999 1.90594 30.0596V31.5991C1.89602 32.8387 2.5611 33.9783 3.64309 34.5681L5.69788 35.6677V41.3857C5.69788 44.2048 7.98099 46.504 10.7803 46.504H14.0362L16.5675 49.0531C18.5627 51.0724 21.3322 52.232 24.1613 52.232H25.5013C26.6528 52.232 27.7745 52.7018 28.5885 53.5315L28.8466 53.7915L28.3403 54.3013C28.0922 54.5512 27.9631 54.8711 27.9631 55.221C27.9631 55.5708 28.1021 55.9007 28.3403 56.1406L29.7499 57.5602C29.9881 57.8101 30.3058 57.96 30.6532 57.97H30.6929C31.0205 57.97 31.3381 57.8501 31.5764 57.6101C31.8245 57.3702 31.9734 57.0503 31.9834 56.7005C31.9834 56.3506 31.8643 56.0207 31.5863 55.7208L31.0801 55.211L42.9919 43.2151L47.7567 48.0134C48.2431 48.5333 49.067 48.5633 49.5931 48.0634C50.0795 47.6036 50.1291 46.8538 49.7023 46.294L49.7122 46.324ZM8.65599 3.81868C9.10269 3.07894 9.89681 2.6091 10.7803 2.6091H27.844C28.7175 2.6091 29.5216 3.07894 29.9683 3.81868H8.65599ZM30.3455 38.1868H8.27878V36.9073C8.47732 36.9473 8.67585 36.9773 8.87438 36.9773C9.43026 36.9773 9.98615 36.8173 10.4626 36.5274C11.4652 35.9176 12.0707 34.808 12.0608 33.6384V32.0989C12.0608 31.3392 11.8126 30.6094 11.356 30.0097C11.8226 29.4099 12.0707 28.6801 12.0608 27.9104V26.3709C12.0608 25.6112 11.8126 24.8814 11.356 24.2816C11.8226 23.6818 12.0707 22.9521 12.0608 22.1923V20.6529C12.0707 19.4133 11.4156 18.2737 10.3237 17.6839L8.26886 16.5843V6.42778H30.3256V38.1868H30.3455ZM9.4799 22.1923C9.4799 22.4523 9.36078 22.6922 9.14239 22.8321C8.9935 22.9321 8.80489 22.9321 8.64607 22.8421L4.86405 20.8128C4.63574 20.6829 4.48685 20.423 4.49677 20.1431V18.5936C4.49677 18.3337 4.61589 18.0938 4.83427 17.9538C4.91369 17.9038 5.01295 17.8738 5.09236 17.8738C5.17178 17.8738 5.26112 17.8938 5.3306 17.9338L9.11261 19.9631C9.35085 20.0931 9.48982 20.353 9.48982 20.6229V22.1824L9.4799 22.1923ZM4.77471 23.7418L7.4251 25.1613C7.83209 25.3812 8.29864 25.5112 8.76519 25.5212L9.11261 25.7011C9.35085 25.8311 9.48982 26.091 9.48982 26.3709V27.9304C9.48982 28.1903 9.3707 28.4402 9.15232 28.5801C9.00342 28.6701 8.81482 28.6801 8.65599 28.5801L4.86405 26.5508C4.63574 26.4109 4.48685 26.161 4.49677 25.8911V24.3316C4.49677 24.0917 4.60596 23.8718 4.78464 23.7418H4.77471ZM4.77471 29.4698L7.4251 30.8893C7.83209 31.1093 8.28871 31.2292 8.75526 31.2492L9.10269 31.4392C9.34092 31.5791 9.4799 31.829 9.4799 32.1089V33.6584C9.4799 33.9183 9.36078 34.1682 9.14239 34.2982C8.9935 34.3881 8.80489 34.3981 8.64607 34.2982L4.86405 32.2789C4.62582 32.1489 4.48685 31.889 4.48685 31.6091V30.0496C4.48685 29.8097 4.59604 29.5898 4.77471 29.4598V29.4698ZM8.27878 40.7959H30.3356V41.4057C30.3356 42.7952 29.2139 43.9249 27.8341 43.9249H10.7803C9.40048 43.9249 8.28871 42.7952 8.28871 41.4057V40.7959H8.27878ZM40.2323 42.3554L30.683 51.9621L30.4249 51.7022C29.1345 50.3926 27.3378 49.6429 25.5013 49.6429H24.1613C22.0072 49.6429 19.9127 48.7632 18.3939 47.2237L17.6991 46.524H27.844C30.6433 46.524 32.9264 44.2247 32.9264 41.4057V20.403C32.9264 19.0134 34.0481 17.8838 35.4279 17.8838H35.5867C35.8944 17.8838 36.1624 18.1238 36.1823 18.4436L37.8003 38.2568C37.9095 39.4364 38.4356 40.546 39.2595 41.3857L40.2323 42.3654V42.3554ZM4.29824 8.33713C4.5067 8.33713 4.71516 8.4171 4.86405 8.55705L5.68796 9.32678V13.5753L2.77948 10.8363C2.57102 10.6563 2.53132 10.3464 2.68021 10.1165L3.59346 8.687C3.7225 8.48707 3.93096 8.36712 4.17912 8.33713C4.21883 8.33713 4.25853 8.33713 4.29824 8.33713Z" fill="black"/>
<path d="M18.3542 43.6549H20.2501C20.5976 43.6549 20.9152 43.525 21.1634 43.2751C21.4116 43.0252 21.5406 42.7053 21.5406 42.3554C21.5406 41.6356 20.9649 41.0458 20.2402 41.0458H18.3443C17.9968 41.0458 17.6792 41.1758 17.431 41.4257C17.1828 41.6756 17.0538 41.9955 17.0538 42.3454C17.0538 42.6953 17.1828 43.0252 17.431 43.2651C17.6792 43.505 17.9968 43.6449 18.3443 43.6449L18.3542 43.6549Z" fill="black"/>
</g>
<defs>
<clipPath id="clip0_2017_245">
<rect width="50" height="58" fill="white"/>
</clipPath>
</defs>
</svg>
