<svg width="96" height="70" viewBox="0 0 96 70" fill="none" xmlns="http://www.w3.org/2000/svg">
<g clip-path="url(#clip0_2098_60)">
<path d="M18.2324 29.3475V59.64C18.2324 60.8825 18.8577 62.02 19.8944 62.5975C25.1765 65.555 35.0332 70 47.9671 70C60.9009 70 70.7741 65.555 76.0398 62.5975C77.0764 62.02 77.7017 60.8825 77.7017 59.64V29.3825L18.2324 29.3475Z" fill="#333333"/>
<path d="M91.3926 56.63C90.8002 53.5325 90.504 50.3825 90.504 47.1975C90.504 39.34 90.504 24.5 90.504 24.5C90.504 23.695 89.8787 23.03 89.1217 23.03C88.3648 23.03 87.7395 23.695 87.7395 24.5C87.7395 24.5 87.7395 39.34 87.7395 47.1975C87.7395 50.365 87.4433 53.4975 86.8509 56.6125C86.1598 60.235 85.4851 63.8575 84.7775 67.48C84.7117 67.795 84.8269 68.1275 85.0737 68.32C85.7649 68.88 87.1636 69.79 89.1053 69.79C91.047 69.79 92.4457 68.88 93.1368 68.32C93.3836 68.1275 93.4988 67.795 93.433 67.48L91.3596 56.63H91.3926Z" fill="#B3B3B3"/>
<path d="M0.493658 20.195C-0.164553 20.475 -0.164553 21.4725 0.493658 21.7525L18.2324 29.3475L47.4241 41.3525C48.1646 41.6675 49.0038 41.65 49.7443 41.335L77.7017 29.365L89.1217 24.465L95.5063 21.735C96.1646 21.455 96.1646 20.4575 95.5063 20.1775L48.5924 0.12252C48.2139 -0.0349805 47.7861 -0.0349805 47.4076 0.12252L0.493658 20.195Z" fill="#7F7F7F"/>
</g>
<defs>
<clipPath id="clip0_2098_60">
<rect width="96" height="70" fill="white"/>
</clipPath>
</defs>
</svg>
