<svg width="60" height="44" viewBox="0 0 60 44" fill="none" xmlns="http://www.w3.org/2000/svg">
<g clip-path="url(#clip0_16_37)">
<path d="M51.78 0H8.22C3.69 0 0 3.71 0 8.26V35.73C0 40.29 3.69 43.99 8.22 43.99H51.77C56.3 43.99 59.99 40.28 59.99 35.73V8.26C59.99 3.7 56.3 0 51.77 0H51.78ZM8.22 3.26H51.77C52.91 3.26 53.97 3.65 54.81 4.31L32.74 20.79C31.1 22.01 28.89 22.01 27.25 20.79L5.19 4.31C6.03 3.66 7.09 3.26 8.23 3.26H8.22ZM56.76 35.74C56.76 38.5 54.52 40.74 51.78 40.74H8.22C5.47 40.74 3.24 38.49 3.24 35.74V8.27C3.24 7.85 3.3 7.44 3.4 7.04L25.32 23.4C26.72 24.44 28.36 24.97 30 24.97C31.64 24.97 33.28 24.45 34.68 23.4L56.59 7.04C56.69 7.43 56.75 7.85 56.75 8.27V35.74H56.76Z" fill="#000032"/>
</g>
<defs>
<clipPath id="clip0_16_37">
<rect width="60" height="44" fill="white"/>
</clipPath>
</defs>
</svg>
