<svg width="60" height="60" viewBox="0 0 60 60" fill="none" xmlns="http://www.w3.org/2000/svg">
<g clip-path="url(#clip0_15_34)">
<path d="M30 0.5C46.1176 0.5 59.4998 13.6098 59.5 29.9297C59.5 46.4583 45.9092 59.5 30 59.5C14.0939 59.5 0.5 46.1813 0.5 29.9297C0.500172 13.679 13.8832 0.5 30 0.5ZM42.7129 46.9463C39.0786 47.9043 35.0992 48.3905 30.9619 48.46L30.4697 48.4688V58.4404L30.9902 58.4199C34.705 58.27 39.8431 55.2507 43.2949 47.6367L43.7295 46.6787L42.7129 46.9463ZM4.83594 41.1514L4.05469 41.7373C7.31195 48.8727 13.4591 54.4597 21.0205 57.0039L21.5029 56.1484C18.8698 53.9234 16.6221 50.5982 15.0449 46.626L14.958 46.4062L14.7334 46.334L13.9805 46.084C10.2552 44.8045 7.1195 43.1152 4.83594 41.1514ZM55.1641 41.0811C52.7269 43.177 49.3914 44.9589 45.2695 46.2637L45.043 46.335L44.9551 46.5557C43.3798 50.5234 41.132 53.7833 38.4912 56.083L38.9756 56.9355C46.5406 54.4614 52.6992 48.8718 55.9463 41.665L55.1641 41.0811ZM45.5664 27.8096C41.3354 29.5905 36.2587 30.5517 30.957 30.6904L30.4697 30.7031V47.458L30.9775 47.4502C35.5368 47.3796 40.0208 46.7442 43.957 45.6211L43.8496 45.2432L44.29 45.3213C46.117 40.3073 46.8952 34.4009 46.2578 28.2188L46.1885 27.5469L45.5664 27.8096ZM3.63672 19.1328C2.29386 22.4494 1.51953 26.1231 1.51953 29.9404C1.51957 32.0622 1.79566 34.1884 2.22168 36.1562L2.23242 36.2051L2.25195 36.251C3.79438 39.7688 7.97384 42.8239 13.5801 44.8506L14.5381 45.1963L14.2256 44.2266C12.5106 38.8941 12.1038 32.9879 12.7861 27.4307L12.8281 27.0859L12.5205 26.9258C8.42251 24.7979 5.68813 22.1066 4.56738 19.1338L3.92578 19.25L3.63672 19.1328ZM55.4326 19.124C54.3115 22.0976 51.5862 24.7992 47.4805 26.916L47.1709 27.0752L47.2139 27.4219C47.8954 32.9041 47.4209 38.8727 45.7725 44.2227L45.4766 45.1816L46.4199 44.8398C52.0219 42.811 56.1323 39.7569 57.7441 36.249L57.79 36.1494V36.0859C58.2703 34.1195 58.4805 32.0793 58.4805 29.9199C58.4805 26.1191 57.7792 22.4312 56.3604 19.1035L55.8711 17.958L55.4326 19.124ZM38.834 11.2207C37.0047 12.7954 34.1335 13.7453 30.9375 13.9512L30.4697 13.9814V29.6836L30.9834 29.6699C36.3755 29.5285 41.5115 28.4786 45.6816 26.6377L46.0371 26.4805L45.9736 26.0977C44.9934 20.2063 42.8041 14.8976 39.5312 11.2656L39.2041 10.9023L38.834 11.2207ZM39.876 4.26758C41.2163 5.98432 41.391 8.04456 40.1387 9.85547L39.915 10.1787L40.1768 10.4727C43.4433 14.1403 45.8399 19.3993 46.8672 25.3652L46.9873 26.0596L47.6025 25.7168C52.0355 23.2518 54.7829 20.0006 55.0088 16.4219L55.0186 16.2725L54.9443 16.1426C51.6886 10.4248 46.6017 5.96829 40.457 3.49609L38.7314 2.80176L39.876 4.26758ZM19.5332 3.49609C13.3888 5.96814 8.28829 10.4258 5.11133 16.2197L5.04492 16.3418L5.05078 16.4814C5.20179 19.9976 7.9547 23.3231 12.3926 25.7197L13.0039 26.0498L13.123 25.3652C14.1611 19.3945 16.4889 14.1391 19.8105 10.4756L20.0771 10.1816L19.8516 9.85547C18.5992 8.04455 18.7739 5.98434 20.1143 4.26758L21.2588 2.80176L19.5332 3.49609ZM30 1.50977C27.36 1.50977 24.8977 2.11505 23.0781 3.10742C21.2817 4.08717 19.9904 5.52151 19.9902 7.21973C19.9902 8.8397 21.2032 10.2756 22.9697 11.2764C24.758 12.2894 27.2234 12.9297 30 12.9297C32.7766 12.9297 35.242 12.2894 37.0303 11.2764C38.7968 10.2756 40.0098 8.8397 40.0098 7.21973C40.0096 5.52151 38.7183 4.08717 36.9219 3.10742C35.1023 2.11505 32.64 1.50977 30 1.50977ZM29.5303 48.4688L29.0381 48.46C24.9007 48.3905 20.9116 47.9042 17.2773 46.9463L16.2539 46.6768L16.6953 47.6387C20.1575 55.1824 25.2963 58.1997 29.0098 58.3496L29.5303 58.3701V48.4688ZM29.5303 30.6865L29.0361 30.6797C23.7427 30.6104 18.6087 29.5808 14.4365 27.7998L13.8125 27.5342L13.7422 28.209C13.1048 34.3909 13.8734 40.2967 15.71 45.3701L15.7969 45.6113L16.0439 45.6807C20.0492 46.8135 24.4728 47.4392 29.0225 47.5098L29.5303 47.5176V30.6865ZM29.4502 13.9814L28.9824 13.9512C25.7959 13.7459 22.9158 12.7295 21.0781 11.2139L20.7021 10.9043L20.3818 11.2725C17.1784 14.9673 14.9287 20.1993 13.9473 26.0977L13.8828 26.4805L14.2373 26.6377C18.3983 28.4791 23.6051 29.5285 28.9365 29.6699L29.4502 29.6836V13.9814Z" fill="#000032" stroke="#000032"/>
</g>
<defs>
<clipPath id="clip0_15_34">
<rect width="60" height="60" fill="white"/>
</clipPath>
</defs>
</svg>
