<svg width="71" height="96" viewBox="0 0 71 96" fill="none" xmlns="http://www.w3.org/2000/svg">
<g clip-path="url(#clip0_2098_48)">
<path d="M62.6143 0H8.38568C3.74189 0 0 3.744 0 8.3904V80.7744C0 85.4016 3.76108 89.1648 8.38568 89.1648H62.6143C65.7805 89.1648 68.5438 87.3984 69.9638 84.7872C70.0597 84.6144 69.9254 84.4032 69.7335 84.4032H12.4346C8.28973 84.4032 4.91243 81.0432 4.91243 76.8768C4.91243 74.8032 5.75676 72.9024 7.11919 71.5584C8.48162 70.1952 10.3622 69.3504 12.4346 69.3504H70.3859C70.7314 69.3504 71.0192 69.0624 71.0192 68.7168V8.3904C71.0192 3.7632 67.2773 0 62.6335 0H62.6143Z" fill="#333333"/>
<path d="M4.47108 1.01758C1.82297 2.41918 0 5.16478 0 8.39038V80.7744C0 83.9808 1.82297 86.7456 4.47108 88.1472V1.01758Z" fill="#B3B3B3"/>
<path d="M25.3681 76.8576V95.2512C25.3681 95.7696 24.8116 96.1344 24.3319 95.9232L19.9759 94.0224C19.6689 93.888 19.3043 93.888 18.9781 94.0224L14.6222 95.9232C14.1232 96.1344 13.5859 95.7696 13.5859 95.2512V76.8576C13.5859 76.1856 14.1424 75.6096 14.814 75.6096H24.1208C24.8116 75.6096 25.3681 76.1664 25.3681 76.8576Z" fill="#7F7F7F"/>
<path d="M52.7511 27.3408V33.3504C52.7511 33.9648 52.2522 34.464 51.6381 34.464H43.31C43.003 34.464 42.7535 34.7136 42.7535 35.0208V53.3568C42.7535 53.9712 42.2546 54.4704 41.6405 54.4704H35.6343C35.0203 54.4704 34.5213 53.9712 34.5213 53.3568V35.0208C34.5213 34.7136 34.2719 34.464 33.9649 34.464H25.6559C25.0419 34.464 24.543 33.9648 24.543 33.3504V27.3408C24.543 26.7264 25.0419 26.2272 25.6559 26.2272H33.9649C34.2719 26.2272 34.5213 25.9776 34.5213 25.6704V15.6288C34.5213 15.0144 35.0203 14.5152 35.6343 14.5152H41.6405C42.2546 14.5152 42.7535 15.0144 42.7535 15.6288V25.6704C42.7535 25.9776 43.003 26.2272 43.31 26.2272H51.6381C52.2522 26.2272 52.7511 26.7264 52.7511 27.3408Z" fill="white"/>
</g>
<defs>
<clipPath id="clip0_2098_48">
<rect width="71" height="96" fill="white"/>
</clipPath>
</defs>
</svg>
