<svg width="96" height="96" viewBox="0 0 96 96" fill="none" xmlns="http://www.w3.org/2000/svg">
<g clip-path="url(#clip0_2098_53)">
<path d="M86.0217 46.56V91.9296C86.0217 94.176 84.2597 96 82.0897 96H13.9475C11.7775 96 10.0155 94.176 10.0155 91.9296V46.56L48.0186 10.4064L70.6276 31.8912L76.5626 37.536L86.0402 46.5408L86.0217 46.56Z" fill="#333333"/>
<path d="M95.017 46.56H86.0217L76.5441 37.5552L70.609 31.9104L48 10.4256L9.99692 46.56H0.983013C0.0927501 46.56 -0.333834 45.4272 0.315316 44.7936L46.6832 0.537622C47.4436 -0.172778 48.5935 -0.172778 49.354 0.537622L70.6275 20.8512L85.1314 34.7136L95.6847 44.7936C96.3524 45.4272 95.9073 46.56 95.017 46.56Z" fill="#7F7F7F"/>
<path d="M85.1314 2.18883V34.6944L70.609 20.832V2.18883C70.609 1.05603 71.4993 0.153625 72.575 0.153625H83.1469C84.2412 0.153625 85.1129 1.07523 85.1129 2.18883" fill="#B3B3B3"/>
<path d="M55.5301 63.6288H40.5069C38.3369 63.6288 36.575 65.4528 36.575 67.6992V96H59.4807V67.6992C59.4807 65.4528 57.7187 63.6288 55.5487 63.6288" fill="#B3B3B3"/>
<path d="M38.0402 42.1632C38.0402 36.4608 42.51 31.8528 48 31.8528C53.4899 31.8528 57.9598 36.4608 57.9598 42.1632C57.9598 47.8656 53.4899 52.4736 48 52.4736C42.51 52.4736 38.0402 47.8464 38.0402 42.1632Z" fill="#B3B3B3"/>
<path d="M85.1314 34.7136L70.6276 20.8512L85.1314 26.9568V34.7136Z" fill="#666666"/>
</g>
<defs>
<clipPath id="clip0_2098_53">
<rect width="96" height="96" fill="white"/>
</clipPath>
</defs>
</svg>
