<svg width="160" height="60" viewBox="0 0 160 60" fill="none" xmlns="http://www.w3.org/2000/svg">
<g clip-path="url(#clip0_54_19)">
<path d="M74.4924 0.29541H78.749L82.2165 5.97844L85.6839 0.29541H89.9405V14.9766H85.9346V6.5458L82.2304 12.2898H82.1468L78.4612 6.58331V14.9719H74.4971V0.29541H74.4924Z" fill="#302D7E"/>
<path d="M96.1002 0.187561H99.9808L106.168 14.9719H101.852L100.793 12.3507H95.1858L94.146 14.9719H89.9127L96.1002 0.187561ZM99.6281 9.20913L98.008 5.03595L96.3695 9.20913H99.6281Z" fill="#302D7E"/>
<path d="M106.141 0.29541H113.011C114.134 0.29541 115.081 0.436079 115.856 0.717417C116.631 0.998755 117.262 1.38794 117.745 1.88966C118.604 2.72898 119.031 3.8684 119.031 5.30791V5.35011C119.031 6.48484 118.762 7.41795 118.223 8.15881C117.685 8.89966 116.956 9.46703 116.042 9.85621L119.509 14.9719H114.858L111.929 10.5267H110.165V14.9719H106.136V0.29541H106.141ZM112.83 7.33824C113.521 7.33824 114.055 7.17881 114.426 6.86465C114.798 6.55049 114.988 6.12848 114.988 5.59394V5.55174C114.988 4.96562 114.793 4.52955 114.408 4.23883C114.018 3.9528 113.489 3.80745 112.811 3.80745H110.174V7.32886H112.834L112.83 7.33824Z" fill="#302D7E"/>
<path d="M126.63 15.2673C125.59 15.2673 124.615 15.0797 123.701 14.6999C122.786 14.3201 121.992 13.7949 121.324 13.115C120.651 12.4351 120.122 11.6333 119.727 10.7049C119.333 9.77649 119.133 8.76368 119.133 7.67584V7.63364C119.133 6.56924 119.328 5.57518 119.713 4.64676C120.099 3.71835 120.632 2.90716 121.31 2.21319C121.988 1.51922 122.796 0.979994 123.729 0.586121C124.662 0.192248 125.683 0 126.792 0C127.54 0 128.217 0.0750234 128.825 0.220381C129.433 0.365739 129.99 0.576743 130.496 0.848703C131.002 1.12066 131.457 1.44889 131.866 1.82401C132.274 2.20381 132.636 2.61175 132.957 3.06189L129.925 5.42982C129.512 4.89997 129.053 4.47796 128.556 4.17318C128.059 3.86371 127.456 3.71366 126.75 3.71366C126.24 3.71366 125.771 3.81682 125.349 4.01844C124.926 4.22007 124.564 4.49672 124.258 4.84839C123.951 5.20006 123.715 5.61269 123.543 6.08628C123.371 6.55986 123.283 7.06627 123.283 7.59612V7.63833C123.283 8.18225 123.371 8.69803 123.543 9.18099C123.715 9.66396 123.956 10.0813 124.258 10.4283C124.564 10.7799 124.926 11.0519 125.349 11.2582C125.771 11.4598 126.24 11.563 126.75 11.563C127.126 11.563 127.465 11.5208 127.776 11.4364C128.087 11.352 128.37 11.2301 128.626 11.0706C128.881 10.9112 129.122 10.7237 129.354 10.5033C129.582 10.2876 129.809 10.0438 130.028 9.78118L133.059 11.9616C132.711 12.4351 132.335 12.8759 131.926 13.2838C131.518 13.6871 131.053 14.0388 130.534 14.3342C130.014 14.6296 129.433 14.8593 128.788 15.0281C128.143 15.1969 127.419 15.2813 126.62 15.2813L126.63 15.2673Z" fill="#302D7E"/>
<path d="M138.374 0.187561H142.254L148.442 14.9719H144.125L143.067 12.3507H137.459L136.419 14.9719H132.186L138.374 0.187561ZM141.901 9.20913L140.281 5.03595L138.643 9.20913H141.901Z" fill="#302D7E"/>
<path d="M154.128 15.2251C152.828 15.2251 151.594 15.0188 150.424 14.6155C149.254 14.2076 148.219 13.5933 147.318 12.7774L149.56 10.0672C151.013 11.2394 152.582 11.8303 154.272 11.8303C154.81 11.8303 155.224 11.7412 155.507 11.5677C155.79 11.3942 155.934 11.1457 155.934 10.8221V10.7799C155.934 10.6252 155.901 10.4892 155.832 10.372C155.762 10.2548 155.637 10.1375 155.446 10.025C155.256 9.91247 155.01 9.80462 154.699 9.70146C154.388 9.59831 153.984 9.49046 153.483 9.37793C152.708 9.19506 151.988 8.99812 151.324 8.78243C150.661 8.56673 150.08 8.2854 149.593 7.9431C149.101 7.60081 148.716 7.17411 148.428 6.6677C148.145 6.15661 148.001 5.52828 148.001 4.77336V4.73116C148.001 4.04657 148.131 3.41825 148.386 2.8462C148.641 2.27414 149.017 1.77711 149.509 1.35979C150.001 0.942477 150.591 0.614249 151.283 0.38449C151.974 0.15473 152.759 0.0375061 153.627 0.0375061C154.871 0.0375061 155.985 0.20162 156.96 0.534536C157.934 0.862764 158.816 1.35511 159.605 2.00218L157.591 4.8859C156.927 4.41231 156.245 4.05126 155.548 3.80743C154.848 3.56361 154.174 3.4417 153.525 3.4417C153.042 3.4417 152.675 3.53079 152.434 3.71366C152.192 3.89652 152.072 4.11691 152.072 4.38418V4.42638C152.072 4.59518 152.109 4.74054 152.188 4.86714C152.262 4.99374 152.397 5.10628 152.582 5.21412C152.768 5.32197 153.023 5.42513 153.348 5.52828C153.673 5.63144 154.086 5.73929 154.583 5.85182C155.414 6.03469 156.166 6.2457 156.834 6.48952C157.507 6.73335 158.078 7.02875 158.547 7.38043C159.016 7.7321 159.378 8.14942 159.629 8.64645C159.879 9.14348 160.005 9.7296 160.005 10.4142V10.4564C160.005 11.2113 159.861 11.8818 159.578 12.468C159.294 13.0541 158.895 13.5511 158.385 13.9637C157.874 14.3764 157.257 14.6905 156.537 14.9062C155.818 15.1219 155.015 15.2298 154.128 15.2298V15.2251Z" fill="#302D7E"/>
<path d="M74.4924 21.2223H78.5401V35.9034H74.4924V21.2223Z" fill="#302D7E"/>
<path d="M88.8265 36.1988C87.7867 36.1988 86.8119 36.0113 85.8975 35.6315C84.983 35.2563 84.1893 34.7265 83.5208 34.0466C82.8478 33.3667 82.3186 32.5649 81.9241 31.6365C81.5295 30.708 81.3299 29.6952 81.3299 28.6074V28.5652C81.3299 27.5055 81.5249 26.5067 81.9101 25.5783C82.2954 24.6499 82.8292 23.8387 83.5069 23.1447C84.1846 22.4508 84.9923 21.9115 85.9253 21.5177C86.8583 21.1285 87.8795 20.9315 88.989 20.9315C89.7363 20.9315 90.414 21.0066 91.0221 21.1519C91.6302 21.2973 92.1872 21.5083 92.6931 21.7803C93.1991 22.0522 93.654 22.3758 94.0625 22.7556C94.471 23.1354 94.833 23.548 95.1533 23.9934L92.1222 26.3614C91.7091 25.8315 91.2495 25.4095 90.7528 25.1047C90.2562 24.7953 89.6527 24.6452 88.9472 24.6452C88.4366 24.6452 87.9677 24.7484 87.5453 24.95C87.1229 25.1516 86.7609 25.4283 86.4545 25.7799C86.1481 26.1316 85.9114 26.5442 85.7397 27.0178C85.5679 27.4914 85.4797 27.9978 85.4797 28.5277V28.5699C85.4797 29.1138 85.5679 29.6296 85.7397 30.1125C85.9114 30.5955 86.1528 31.0128 86.4545 31.3598C86.7609 31.7115 87.1229 31.9834 87.5453 32.1898C87.9677 32.3961 88.4366 32.4945 88.9472 32.4945C89.3232 32.4945 89.662 32.4523 89.973 32.3679C90.284 32.2835 90.5672 32.1616 90.8225 32.0022C91.0778 31.8428 91.3192 31.6505 91.5512 31.4348C91.7787 31.2191 92.0061 30.9753 92.2243 30.7127L95.2555 32.8931C94.9073 33.3667 94.5313 33.8074 94.1228 34.2154C93.7144 34.6233 93.2502 34.9703 92.7303 35.2657C92.2104 35.5611 91.6302 35.7909 90.9849 35.9597C90.3397 36.1285 89.6156 36.2129 88.8172 36.2129L88.8265 36.1988Z" fill="#302D7E"/>
<path d="M104.924 36.1988C103.801 36.1988 102.766 36.0019 101.81 35.5986C100.854 35.2001 100.032 34.6608 99.3403 33.9716C98.6486 33.287 98.1055 32.4805 97.711 31.5614C97.3164 30.6377 97.1168 29.653 97.1168 28.6027V28.5605C97.1168 27.5102 97.3164 26.5208 97.711 25.5924C98.1055 24.664 98.6533 23.8528 99.3635 23.1588C100.069 22.4648 100.9 21.9209 101.856 21.5224C102.812 21.1238 103.848 20.9222 104.971 20.9222C106.094 20.9222 107.129 21.1238 108.086 21.5224C109.042 21.9209 109.863 22.4648 110.555 23.1494C111.247 23.834 111.79 24.6405 112.184 25.5596C112.579 26.4833 112.774 27.468 112.774 28.5183V28.5605C112.774 29.6108 112.579 30.6002 112.184 31.5286C111.79 32.457 111.237 33.2682 110.532 33.9622C109.826 34.6561 108.995 35.2001 108.039 35.5986C107.083 35.9972 106.048 36.1988 104.924 36.1988ZM104.957 32.5274C105.514 32.5274 106.02 32.4242 106.475 32.2132C106.93 32.0022 107.32 31.7209 107.64 31.3645C107.96 31.0081 108.211 30.5908 108.387 30.1172C108.568 29.6436 108.656 29.1372 108.656 28.6074V28.5652C108.656 28.0353 108.564 27.5289 108.387 27.0553C108.206 26.5817 107.951 26.1597 107.617 25.7987C107.282 25.4376 106.888 25.1469 106.428 24.9265C105.969 24.7108 105.463 24.603 104.91 24.603C104.358 24.603 103.852 24.7062 103.402 24.9172C102.952 25.1282 102.562 25.4095 102.237 25.7659C101.912 26.1222 101.661 26.5395 101.489 27.0131C101.318 27.4867 101.23 27.9931 101.23 28.523V28.5652C101.23 29.095 101.318 29.6014 101.499 30.075C101.68 30.5486 101.93 30.9706 102.26 31.3317C102.585 31.6974 102.979 31.9834 103.434 32.2038C103.889 32.4242 104.4 32.5274 104.952 32.5274H104.957Z" fill="#302D7E"/>
<path d="M115.503 21.2223H119.268L125.26 28.9825V21.2223H129.225V35.9034H125.687L119.467 27.8478V35.9034H115.503V21.2223Z" fill="#302D7E"/>
<path d="M132.432 21.2223H144.102V24.6827H136.401V26.9053H143.378V30.1125H136.401V32.4383H144.208V35.8987H132.437V21.2176L132.432 21.2223Z" fill="#302D7E"/>
<path d="M152.624 36.1566C151.324 36.1566 150.09 35.9503 148.92 35.547C147.75 35.1391 146.715 34.5248 145.815 33.709L148.057 30.9987C149.509 32.171 151.078 32.7618 152.768 32.7618C153.306 32.7618 153.72 32.6727 154.003 32.4992C154.286 32.3257 154.43 32.0772 154.43 31.7584V31.7162C154.43 31.5614 154.397 31.4254 154.328 31.3082C154.258 31.191 154.133 31.0738 153.942 30.9612C153.757 30.8487 153.506 30.7409 153.195 30.6377C152.884 30.5345 152.48 30.4267 151.979 30.3142C151.204 30.1313 150.484 29.9344 149.82 29.7187C149.157 29.503 148.576 29.2216 148.089 28.8793C147.597 28.537 147.212 28.1103 146.924 27.6039C146.641 27.0928 146.497 26.4645 146.497 25.7096V25.6674C146.497 24.9828 146.627 24.3545 146.882 23.7824C147.137 23.2104 147.513 22.7133 148.005 22.296C148.498 21.8787 149.087 21.5552 149.779 21.3207C150.47 21.091 151.255 20.9737 152.123 20.9737C153.367 20.9737 154.481 21.1379 155.456 21.4708C156.43 21.8037 157.312 22.2913 158.101 22.9384L156.087 25.8221C155.423 25.3485 154.741 24.9875 154.045 24.7437C153.344 24.4998 152.671 24.3779 152.021 24.3779C151.538 24.3779 151.171 24.467 150.93 24.6499C150.688 24.8328 150.568 25.0531 150.568 25.3204V25.3626C150.568 25.5314 150.605 25.6768 150.684 25.8034C150.758 25.93 150.893 26.0425 151.078 26.1504C151.264 26.2535 151.519 26.3614 151.844 26.4645C152.169 26.5677 152.582 26.6755 153.079 26.7881C153.91 26.9709 154.662 27.1819 155.33 27.4258C156.003 27.6696 156.574 27.965 157.043 28.3167C157.512 28.6683 157.874 29.0857 158.125 29.5827C158.375 30.0797 158.501 30.6658 158.501 31.3504V31.3926C158.501 32.1475 158.357 32.8181 158.074 33.4042C157.79 33.9903 157.391 34.4873 156.881 34.9C156.37 35.3126 155.753 35.6268 155.033 35.8425C154.314 36.0581 153.511 36.166 152.624 36.166V36.1566Z" fill="#302D7E"/>
<path fill-rule="evenodd" clip-rule="evenodd" d="M76.5256 17.382H80.3876L78.5169 20.2188H74.6549L76.5256 17.382Z" fill="#302D7E"/>
<path d="M43.0625 19.1966L29.6707 39.7249L4.46082 0.29071H17.0217L29.6754 20.8565L42.329 0.29071H54.5603V60.0047C50.7262 53.9887 46.892 47.4336 43.0625 41.4176V19.1966ZM29.68 38.2666L43.8562 16.5333V41.1832L53.7666 57.2804V1.08783H42.77L29.6754 22.3664L16.5853 1.08783H5.91372L29.68 38.262V38.2666Z" fill="#302D7E"/>
<path d="M57.9907 57.2804L67.8221 41.849V1.08783H57.9907V57.2804ZM68.5509 42.1772L57.2015 60V0.29071H68.6159V42.0835L68.5509 42.1819V42.1772Z" fill="#302D7E"/>
<path d="M0.979431 0.248505L27.8325 42.4539L27.3405 43.2276L0 0.248505H0.979431Z" fill="#302D7E"/>
<path d="M75.2769 54.1857L81.497 49.3889C83.0381 48.165 83.6555 47.3726 83.6555 46.3692C83.6555 45.2907 82.9174 44.6436 81.7801 44.6436C80.6429 44.6436 79.7842 45.3142 78.4798 46.824L75.3698 44.2122C77.1522 41.8865 78.9301 40.6158 82.1376 40.6158C85.7675 40.6158 88.2602 42.7962 88.2602 45.9612V46.0081C88.2602 48.6949 86.8815 50.0828 84.4167 51.8834L81.5666 53.8996H88.4273V57.6883H75.2769V54.1857Z" fill="#302D7E"/>
<path d="M90.2794 49.342V49.2951C90.2794 44.5452 93.2687 40.5642 97.9941 40.5642C102.72 40.5642 105.662 44.4983 105.662 49.2435V49.2904C105.662 54.0403 102.696 58.0213 97.9477 58.0213C93.1991 58.0213 90.2794 54.0872 90.2794 49.342ZM101.03 49.342V49.2951C101.03 46.6083 99.7952 44.6671 97.9431 44.6671C96.091 44.6671 94.9027 46.5614 94.9027 49.2482V49.2951C94.9027 51.9819 96.1374 53.8997 97.9895 53.8997C99.8416 53.8997 101.03 52.0053 101.03 49.342Z" fill="#302D7E"/>
<path d="M107.18 54.1857L113.4 49.3889C114.942 48.165 115.559 47.3726 115.559 46.3692C115.559 45.2907 114.821 44.6436 113.684 44.6436C112.546 44.6436 111.688 45.3142 110.383 46.824L107.273 44.2122C109.056 41.8865 110.833 40.6158 114.041 40.6158C117.671 40.6158 120.164 42.7962 120.164 45.9612V46.0081C120.164 48.6949 118.785 50.0828 116.32 51.8834L113.47 53.8996H120.331V57.6883H107.18V54.1857Z" fill="#302D7E"/>
<path d="M124.225 56.1035C122.991 54.8562 122.183 52.9619 122.183 49.8203V49.7734C122.183 44.5452 124.699 40.5642 129.898 40.5642C132.223 40.5642 133.839 41.2113 135.431 42.4117L133.272 45.6752C132.251 44.9062 131.304 44.4045 129.972 44.4045C127.572 44.4045 126.955 46.6599 126.839 48.0009C127.906 47.1616 128.997 46.7068 130.422 46.7068C133.342 46.7068 135.904 48.5777 135.904 51.935V51.9819C135.904 55.7237 132.938 58.0259 129.303 58.0259C126.955 58.0259 125.432 57.3085 124.225 56.1082V56.1035ZM131.439 52.2445V52.1976C131.439 50.9737 130.515 50.0406 129.067 50.0406C127.618 50.0406 126.764 50.9503 126.764 52.1741V52.221C126.764 53.4448 127.665 54.4014 129.113 54.4014C130.561 54.4014 131.439 53.4683 131.439 52.2445Z" fill="#302D7E"/>
</g>
<defs>
<clipPath id="clip0_54_19">
<rect width="160" height="60" fill="white"/>
</clipPath>
</defs>
</svg>
