<svg width="200" height="37" viewBox="0 0 200 37" fill="none" xmlns="http://www.w3.org/2000/svg">
<g clip-path="url(#clip0_14_26)">
<path d="M6.83144 6.11432V16.1181H19.0004V22.1801H6.83144V36.2776H0V0H21.4643V6.11432H6.83144Z" fill="black"/>
<path d="M54.1743 0L54.1225 36.2776H47.2391V33.7387C45.4444 35.5552 42.6174 37.0052 39.2821 37.0052C32.0927 37.0052 29.1153 33.0686 29.1153 25.7607V0H36.0505V25.0279C36.0505 29.2262 37.4874 31.0375 40.9264 31.0375C43.7015 31.0375 46.1135 29.378 47.291 27.5144V0H54.1743Z" fill="black"/>
<path d="M86.0077 6.06197H76.9666V36.2776H70.0884V6.06197H61.0525V0H86.0077V6.06197Z" fill="black"/>
<path d="M117.789 0L117.737 36.2776H110.859V33.7387C109.059 35.5552 106.238 37.0052 102.902 37.0052C95.7128 37.0052 92.7354 33.0686 92.7354 25.7607V0H99.6654V25.0279C99.6654 29.2262 101.102 31.0375 104.541 31.0375C107.316 31.0375 109.728 29.378 110.906 27.5144V0H117.789Z" fill="black"/>
<path d="M154.193 31.1474L154.141 36.4346C148.238 37.3141 145.26 36.9005 142.381 31.1003L138.377 23.0177H133.294V36.2828H126.467V0H140.229C147.522 0 152.144 4.55956 152.144 10.6268V12.3909C152.144 16.8458 149.576 20.5259 145.312 22.0806L149.265 29.488C150.499 31.8175 152.652 31.561 154.193 31.1474ZM133.294 16.9976H139.866C143.46 16.9976 145.255 14.7152 145.255 11.7627V11.2445C145.255 8.23967 143.46 6.11432 140.224 6.11432H133.294V16.9976Z" fill="black"/>
<path d="M188.848 36.2776H181.3L178.785 27.7291C175.086 28.352 171.44 28.352 167.746 27.7291L165.334 36.2776H157.787L170.107 0H176.373L188.848 36.2776ZM177.244 22.3372L173.291 8.39672L169.235 22.3372C171.907 22.8554 174.573 22.8554 177.244 22.3372Z" fill="black"/>
<path d="M193.656 2.4342L191.078 5.03593L194.844 8.83644L191.078 12.6369L193.656 15.2387L200 8.83644L193.656 2.4342Z" fill="black"/>
</g>
<defs>
<clipPath id="clip0_14_26">
<rect width="200" height="37" fill="white"/>
</clipPath>
</defs>
</svg>
