<svg width="95" height="45" viewBox="0 0 95 45" fill="none" xmlns="http://www.w3.org/2000/svg">
<g clip-path="url(#clip0_12_21)">
<path fill-rule="evenodd" clip-rule="evenodd" d="M35.245 8.47105C36.5592 8.47105 37.7467 9.01579 38.6017 9.9079C39.4567 10.7921 39.9871 12.0079 39.9871 13.3421C39.9871 14.6763 39.4567 15.9 38.6017 16.7763C37.7388 17.6605 36.5513 18.2132 35.245 18.2132C33.9388 18.2132 32.7433 17.6684 31.8883 16.7763C31.0333 15.8921 30.5029 14.6763 30.5029 13.3421C30.5029 12.0079 31.0333 10.7842 31.8883 9.9079C32.7513 9.02368 33.9388 8.47105 35.245 8.47105ZM37.2479 5.87368C36.3296 5.45526 35.3162 5.21842 34.2554 5.21842C32.1654 5.21842 30.2654 6.12632 28.8958 7.58684C27.5183 9.05526 26.6633 11.0921 26.6633 13.3342C26.6633 15.5763 27.5183 17.6132 28.8958 19.0816C30.2654 20.5421 32.1654 21.45 34.2554 21.45C35.435 21.45 36.5433 21.1658 37.5329 20.6605C38.57 20.1316 39.4725 19.3579 40.185 18.4105L40.4621 18.0395L44.0404 21.3L46.4075 19.1447L43.8821 16.8395V0H40.5017V8.57368L39.7733 7.75263C39.0688 6.95526 38.2138 6.31579 37.2558 5.88158L37.2479 5.87368ZM3.15875 5.22632H0V21.4579H4.10083V13.9658C4.10083 13.5316 4.1325 13.1289 4.20375 12.75C4.275 12.3711 4.38583 12.0158 4.52833 11.7079C4.67083 11.4 4.83708 11.1158 5.02708 10.8632C5.21708 10.6105 5.43875 10.3816 5.67625 10.1763C5.91375 9.97895 6.16708 9.80526 6.44417 9.66316C6.72125 9.52105 7.00625 9.40263 7.30708 9.31579C7.60792 9.22895 7.90875 9.16579 8.20958 9.11842C8.51833 9.07105 8.82708 9.05526 9.14375 9.05526H9.34167V5.24211H9.18333C8.67667 5.25 8.19375 5.31316 7.7425 5.42368C7.29917 5.53421 6.87958 5.69211 6.49167 5.89737C6.09583 6.10263 5.7475 6.33947 5.43083 6.60789C5.12208 6.86842 4.85292 7.15263 4.62333 7.46053L4.49667 7.63421H3.67333L3.15875 5.25V5.22632ZM55.8125 18.0553C56.6042 17.8737 57.3563 17.5421 57.9975 17.0763L58.2033 16.9263L60.2538 18.7184L60.0163 18.9553C58.2667 20.6684 56.145 21.4579 54.0946 21.4579C53.0417 21.4579 52.0125 21.2526 51.0546 20.8658C50.0967 20.4789 49.2258 19.9026 48.4896 19.1605C47.1042 17.7632 46.2096 15.7895 46.2017 13.3737V13.3026C46.2017 12.2132 46.4075 11.1316 46.8033 10.1211C47.1912 9.14211 47.7613 8.24211 48.5054 7.48421C49.1942 6.78158 50.0413 6.21316 51.0388 5.81842C51.9571 5.45526 53.0021 5.25 54.1658 5.24211H54.3717C55.4563 5.25789 56.4617 5.44737 57.3642 5.79474C58.2904 6.15 59.0979 6.66316 59.7629 7.31842C60.4358 7.98158 60.9663 8.78684 61.3304 9.70263C61.6788 10.5947 61.8688 11.5974 61.8767 12.6868V12.8921C61.8767 13.0342 61.8688 13.2158 61.845 13.4211C61.8292 13.5868 61.7975 13.7684 61.7579 13.9579C61.7342 14.0605 61.7104 14.1632 61.6867 14.2579C61.6629 14.3447 61.6312 14.4395 61.5996 14.55L61.5283 14.7632H49.9304L50.0096 15.1184C50.1442 15.6868 50.3658 16.1684 50.6746 16.5711C51.2288 17.3053 52.0204 17.7868 52.9229 18.0316C53.8333 18.2763 54.8467 18.2842 55.8204 18.0632L55.8125 18.0553ZM50.4133 10.2947C50.1917 10.6816 50.0254 11.1316 49.9383 11.6605L49.875 12.0711H58.3221L58.2587 11.6684C58.1717 11.1316 58.0133 10.6658 57.7996 10.2789C57.57 9.86053 57.2771 9.51316 56.9367 9.24474C56.5725 8.94474 56.1529 8.73158 55.7096 8.58947C55.2188 8.43158 54.7042 8.36053 54.1896 8.36053C53.675 8.36053 53.1367 8.43947 52.63 8.59737C52.1629 8.74737 51.7196 8.96842 51.3317 9.26842C50.9675 9.54474 50.6588 9.89211 50.4133 10.3105V10.2947ZM19.095 18.0553C19.8867 17.8737 20.6388 17.5421 21.28 17.0763L21.4858 16.9263L23.5363 18.7184L23.2987 18.9553C21.5492 20.6684 19.4275 21.4579 17.3771 21.4579C16.3242 21.4579 15.295 21.2526 14.3371 20.8658C13.3792 20.4789 12.5083 19.9026 11.7721 19.1605C10.3867 17.7632 9.49208 15.7895 9.48417 13.3737V13.3026C9.48417 12.2132 9.69 11.1316 10.0858 10.1211C10.4738 9.14211 11.0438 8.24211 11.7879 7.48421C12.4767 6.78158 13.3238 6.21316 14.3213 5.81842C15.2396 5.45526 16.2846 5.25 17.4483 5.24211H17.6542C18.7388 5.25789 19.7521 5.44737 20.6467 5.79474C21.5729 6.15 22.3804 6.66316 23.0454 7.31842C23.7183 7.98158 24.2488 8.78684 24.6129 9.70263C24.9613 10.5947 25.1513 11.5974 25.1592 12.6868V12.8921C25.1592 13.0342 25.1513 13.2158 25.1275 13.4211C25.1117 13.5868 25.08 13.7684 25.0404 13.9579C25.0167 14.0605 24.9929 14.1632 24.9692 14.2579C24.9454 14.3447 24.9138 14.4395 24.8821 14.55L24.8108 14.7632H13.205L13.2842 15.1184C13.4188 15.6868 13.6483 16.1684 13.9492 16.5711C14.5033 17.3053 15.295 17.7868 16.1975 18.0316C17.1079 18.2763 18.1213 18.2842 19.095 18.0632V18.0553ZM13.7037 10.2947C13.4821 10.6816 13.3158 11.1316 13.2287 11.6605L13.1654 12.0711H21.6125L21.5492 11.6684C21.4621 11.1316 21.3038 10.6658 21.09 10.2789C20.8604 9.86053 20.5675 9.51316 20.2271 9.24474C19.8629 8.94474 19.4433 8.73158 19 8.58947C18.5092 8.43158 17.9946 8.36053 17.48 8.36053C16.9654 8.36053 16.4271 8.43947 15.9204 8.59737C15.4533 8.74737 15.01 8.96842 14.6221 9.26842C14.2579 9.54474 13.9492 9.89211 13.7037 10.3105V10.2947Z" fill="black"/>
<path fill-rule="evenodd" clip-rule="evenodd" d="M61.1562 28.7684H57.9975V45H62.0983V37.5079C62.0983 37.0737 62.13 36.6711 62.2013 36.2921C62.2725 35.9132 62.3833 35.5579 62.5258 35.25C62.6683 34.9421 62.8346 34.6579 63.0246 34.4053C63.2146 34.1526 63.4363 33.9237 63.6738 33.7184C63.9113 33.521 64.1646 33.3474 64.4417 33.2053C64.7188 33.0632 65.0038 32.9447 65.3046 32.8579C65.6054 32.771 65.9062 32.7079 66.2071 32.6605C66.5158 32.6132 66.8246 32.5974 67.1413 32.5974H67.3392V28.7842H67.1808C66.6742 28.7921 66.1913 28.8553 65.74 28.9658C65.2967 29.0763 64.8771 29.2342 64.4892 29.4395C64.0933 29.6447 63.745 29.8816 63.4283 30.15C63.1196 30.4105 62.8504 30.6947 62.6208 31.0026L62.4942 31.1763H61.6708L61.1642 28.7921L61.1562 28.7684ZM73.5538 28.7684H69.3342V45H73.5538V28.7684ZM85.8404 29.4158C84.9221 28.9974 83.9088 28.7605 82.8479 28.7605C80.7579 28.7605 78.8579 29.6684 77.4883 31.1289C76.1108 32.5974 75.2558 34.6342 75.2558 36.8763C75.2558 39.1184 76.1108 41.1553 77.4883 42.6237C78.8579 44.0842 80.7579 44.9921 82.8479 44.9921C84.0275 44.9921 85.1358 44.7079 86.1254 44.2026C87.1625 43.6737 88.065 42.9 88.7775 41.9526L89.0546 41.5816L92.6329 44.8421L95 42.6868L92.4746 40.3816V28.7605H89.0942V32.1079L88.3658 31.2868C87.6613 30.4895 86.8063 29.85 85.8483 29.4079L85.8404 29.4158ZM83.8375 32.0132C85.1517 32.0132 86.3392 32.5579 87.1942 33.45C88.0492 34.3342 88.5796 35.55 88.5796 36.8842C88.5796 38.2184 88.0492 39.4421 87.1942 40.3184C86.3313 41.2026 85.1438 41.7553 83.8375 41.7553C82.5312 41.7553 81.3358 41.2105 80.4808 40.3184C79.6258 39.4342 79.0954 38.2184 79.0954 36.8842C79.0954 35.55 79.6258 34.3263 80.4808 33.45C81.3438 32.5658 82.5312 32.0132 83.8375 32.0132ZM23.6788 28.7684H19.4592V45H23.6788V28.7684ZM48.2363 41.2974C47.9196 41.3605 47.595 41.3842 47.2625 41.3842C46.93 41.3842 46.6054 41.3526 46.2888 41.2974C45.9721 41.2342 45.6712 41.1474 45.3783 41.0289C44.7925 40.7921 44.2858 40.4526 43.8504 40.0184C43.6367 39.8053 43.4388 39.5684 43.2646 39.3079C43.0904 39.0553 42.94 38.7789 42.8133 38.4868C42.56 37.8947 42.4333 37.2553 42.4333 36.5684C42.4333 36.2289 42.465 35.8974 42.5283 35.5737C42.5917 35.2579 42.6867 34.95 42.8133 34.6579C42.94 34.3737 43.0904 34.1053 43.2646 33.8526C43.4388 33.5921 43.6367 33.3632 43.8504 33.15C44.0642 32.9368 44.3017 32.7474 44.5708 32.5737C44.8321 32.4 45.1092 32.2579 45.4021 32.1395C45.9958 31.9026 46.6292 31.7763 47.3021 31.7763C47.975 31.7763 48.6004 31.8947 49.2021 32.1395C49.495 32.2579 49.7721 32.4079 50.0333 32.5737C50.2946 32.7474 50.5321 32.9368 50.7458 33.15C50.9675 33.371 51.1575 33.6 51.3317 33.8526C51.4979 34.1053 51.6483 34.3737 51.7671 34.6658C51.8858 34.95 51.9808 35.2579 52.0363 35.5816C52.0996 35.9053 52.1312 36.2289 52.1312 36.5684C52.1312 36.9079 52.0996 37.2395 52.0363 37.5632C51.9729 37.8868 51.8779 38.1947 51.7513 38.4868C51.6246 38.7789 51.4742 39.0474 51.3 39.3079C51.1258 39.5684 50.9279 39.8053 50.7142 40.0184C50.5004 40.2316 50.2629 40.421 49.9938 40.5947C49.7404 40.7605 49.4633 40.9026 49.1625 41.0289C48.8696 41.1474 48.5608 41.2421 48.2442 41.2974H48.2363ZM45.4575 44.8421C46.0354 44.9447 46.6371 45 47.2625 45C47.8879 45 48.4975 44.9447 49.0675 44.8421C49.6454 44.7395 50.1996 44.5737 50.7379 44.3605C51.2762 44.1474 51.775 43.8947 52.25 43.5947C52.7171 43.3026 53.1525 42.9632 53.5483 42.5921C53.9442 42.2211 54.3004 41.8105 54.6171 41.3605C54.9338 40.9105 55.2108 40.4368 55.4404 39.9237C55.67 39.4105 55.8442 38.8737 55.955 38.3132C56.0658 37.7605 56.1292 37.1763 56.1292 36.5684C56.1292 35.9605 56.0738 35.4 55.955 34.8474C55.8363 34.2947 55.67 33.7658 55.4404 33.2605C55.2108 32.7553 54.9338 32.2737 54.6171 31.8316C54.3004 31.3895 53.9442 30.9789 53.5483 30.6079C53.1525 30.2368 52.7171 29.8974 52.25 29.6053C51.7829 29.3053 51.2762 29.0526 50.7379 28.8395C50.1996 28.6263 49.6454 28.4684 49.0754 28.3579C48.5054 28.2553 47.9117 28.2 47.2942 28.2C46.6767 28.2 46.0829 28.2553 45.5129 28.3579C44.9429 28.4684 44.3888 28.6263 43.8504 28.8395C43.3121 29.0526 42.8133 29.3053 42.3383 29.6053C41.8713 29.8974 41.4358 30.2368 41.04 30.6079C40.6442 30.9868 40.28 31.3895 39.9633 31.8316C39.6467 32.2737 39.3696 32.7553 39.1321 33.2605C38.8946 33.7658 38.7204 34.2947 38.6017 34.8474C38.4829 35.3921 38.4275 35.9684 38.4275 36.5605C38.4275 37.1526 38.4829 37.7526 38.5938 38.3132C38.7046 38.8737 38.8787 39.4105 39.1004 39.9237C39.3221 40.4368 39.5913 40.9184 39.9079 41.3605C40.2167 41.8026 40.5729 42.2132 40.9688 42.5842C41.3646 42.9553 41.8 43.2947 42.2671 43.5868C42.7342 43.8789 43.2408 44.1395 43.7792 44.3526C44.3175 44.5658 44.8717 44.7237 45.4496 44.8342L45.4575 44.8421ZM36.955 44.6447C37.1213 44.5974 37.2796 44.55 37.4221 44.4868L37.3983 40.9816L37.2163 41.0526C37.0579 41.1079 36.8838 41.171 36.6858 41.2342C36.2663 41.3684 35.7833 41.4395 35.2371 41.4395C34.7225 41.4395 34.2554 41.3684 33.8438 41.2263C33.4163 41.0763 33.06 40.8553 32.7592 40.5632C32.4583 40.2632 32.2287 39.8684 32.0863 39.3868C31.9517 38.9289 31.8804 38.3921 31.8804 37.7763V31.8868H36.8363V28.6895H31.8488V25.0184H28.9433L28.1833 28.6895H25.4204V31.8868H27.8667V37.7132C27.8667 38.3842 27.9062 39.0079 27.9854 39.5684C28.0646 40.1289 28.1833 40.6421 28.3417 41.1C28.5 41.5579 28.6821 41.9763 28.9037 42.3474C29.1175 42.7184 29.3629 43.0421 29.64 43.3184C29.9092 43.5947 30.2179 43.8395 30.5504 44.0447C30.8829 44.25 31.2471 44.4237 31.6429 44.55C32.0388 44.6842 32.4663 44.7868 32.9096 44.85C33.3608 44.9211 33.8279 44.9526 34.3267 44.9526C34.58 44.9526 34.8571 44.9368 35.1421 44.9211C35.4429 44.8974 35.7517 44.8579 36.0842 44.8105C36.4088 44.7632 36.7096 44.7 36.9708 44.6289L36.955 44.6447ZM4.24333 28.6895H0L8.01167 45H10.0463L18.0183 28.6895H13.8067L9.41292 38.4237H8.5975L4.23542 28.6895H4.24333Z" fill="black"/>
<path fill-rule="evenodd" clip-rule="evenodd" d="M52.1233 26.7V22.9895L42.4413 24.0395V26.7H52.1233Z" fill="black"/>
</g>
<defs>
<clipPath id="clip0_12_21">
<rect width="95" height="45" fill="white"/>
</clipPath>
</defs>
</svg>
