<svg width="65" height="12" viewBox="0 0 65 12" fill="none" xmlns="http://www.w3.org/2000/svg">
<g clip-path="url(#clip0_61_42)">
<path d="M59.1677 0C58.3498 0 57.5454 0.155294 56.7543 0.465882L56.2046 0.705882C55.1856 1.21412 54.2203 1.96235 53.3354 2.97882L49.9299 6.84706C48.6561 8.30118 47.2215 9.07765 45.7869 9.13412C44.4998 8.96471 43.2261 8.21647 42.0864 6.91765L38.6139 2.96471C36.9111 1.03059 34.8866 0 32.7816 0C30.6766 0 28.6654 1.03059 26.9493 2.97882L23.5437 6.84706C22.2164 8.35765 20.7281 9.14824 19.2265 9.14824C19.2265 9.14824 19.2131 9.14824 19.1997 9.14824C17.6846 9.14824 16.1696 8.31529 14.8288 6.74824L11.745 3.14824C10.0423 1.14353 8.00433 0.0847059 5.87252 0.0705882C5.85912 0.0705882 5.84571 0.0705882 5.8323 0.0705882C3.72731 0.0705882 1.71617 1.10118 0 3.04941L1.89047 4.94118C3.09715 3.55765 4.46473 2.83765 5.8323 2.83765C5.8323 2.83765 5.84571 2.83765 5.85912 2.83765C7.2401 2.83765 8.62108 3.6 9.84117 5.02588L12.9249 8.62588C14.7618 10.7718 16.9338 11.9012 19.1863 11.9294C19.1997 11.9294 19.2131 11.9294 19.2265 11.9294C21.4656 11.9294 23.6108 10.8282 25.4342 8.75294L28.2096 5.59059L28.2632 5.64706C29.671 4.03765 31.2799 3.17647 32.7413 3.17647C33.9882 3.17647 35.1547 3.81176 36.2139 5.04L39.2976 8.64C41.0674 10.7153 43.159 11.8306 45.3445 11.9153C45.6931 11.9718 46.0417 12 46.3903 12C48.6293 12 50.7745 10.8988 52.598 8.82353L56.5398 4.37647C57.7733 2.97882 59.7576 2.51294 61.3531 3.41647C61.9565 3.75529 62.5464 4.24941 63.1095 4.88471L65 3.00706C63.2838 1.03059 61.2727 0 59.1677 0Z" fill="#F6A605"/>
</g>
<defs>
<clipPath id="clip0_61_42">
<rect width="65" height="12" fill="white"/>
</clipPath>
</defs>
</svg>
