<svg width="140" height="140" viewBox="0 0 140 140" fill="none" xmlns="http://www.w3.org/2000/svg">
<g clip-path="url(#clip0_78_47)">
<path d="M70 109.5C91.8152 109.5 109.5 91.8152 109.5 70C109.5 48.1848 91.8152 30.5 70 30.5C48.1848 30.5 30.5 48.1848 30.5 70C30.5 91.8152 48.1848 109.5 70 109.5Z" stroke="#D2E093"/>
<path d="M70 119.5C97.3381 119.5 119.5 97.3381 119.5 70C119.5 42.6619 97.3381 20.5 70 20.5C42.6619 20.5 20.5 42.6619 20.5 70C20.5 97.3381 42.6619 119.5 70 119.5Z" stroke="#D2E093"/>
<path d="M70 129.5C102.861 129.5 129.5 102.861 129.5 70C129.5 37.1391 102.861 10.5 70 10.5C37.1391 10.5 10.5 37.1391 10.5 70C10.5 102.861 37.1391 129.5 70 129.5Z" stroke="#D2E093"/>
<path d="M70 139.5C108.384 139.5 139.5 108.384 139.5 70C139.5 31.6162 108.384 0.5 70 0.5C31.6162 0.5 0.5 31.6162 0.5 70C0.5 108.384 31.6162 139.5 70 139.5Z" stroke="#D2E093"/>
</g>
<defs>
<clipPath id="clip0_78_47">
<rect width="140" height="140" fill="white"/>
</clipPath>
</defs>
</svg>
